<?xml version="1.0" encoding="utf-8"?>
<!-- Generator: Adobe Illustrator 28.0.0, SVG Export Plug-In . SVG Version: 6.00 Build 0)  -->
<svg version="1.1" id="Layer_1" xmlns="http://www.w3.org/2000/svg" xmlns:xlink="http://www.w3.org/1999/xlink" x="0px" y="0px"
	 viewBox="0 0 414.1 398" style="enable-background:new 0 0 414.1 398;" xml:space="preserve">
<style type="text/css">
	.st0{fill:#1D1D1B;}
	.st1{fill:#FFFFFF;}
	.st2{fill:#7B797A;}
	.st3{fill:#FFFFFF;stroke:#1D1D1B;stroke-width:2;stroke-miterlimit:10;}
	.st4{fill:#FFFFFF;stroke:#1D1D1B;stroke-miterlimit:10;}
</style>
<g>
	<g>
		<path class="st0" d="M318.1,352.9H250c-0.7,0-1.2-0.5-1.2-1.2v-43.8c0-0.7,0.5-1.2,1.2-1.2h68.1c0.7,0,1.2,0.5,1.2,1.2v43.8
			C319.3,352.3,318.8,352.9,318.1,352.9z"/>
		<g>
			<path class="st1" d="M319.3,310.2h-70.5v-2.3c0-0.7,0.5-1.2,1.2-1.2h68.1c0.7,0,1.2,0.5,1.2,1.2L319.3,310.2L319.3,310.2z"/>
			<rect x="248.8" y="320.9" class="st1" width="70.5" height="3.6"/>
			<rect x="248.8" y="313.8" class="st1" width="70.5" height="3.6"/>
			<path class="st1" d="M319.3,331.5H250c-0.7,0-1.2-0.5-1.2-1.2V328h70.5V331.5z"/>
			<rect x="248.8" y="342.2" class="st1" width="70.5" height="3.6"/>
			<path class="st1" d="M318.1,352.9H250c-0.7,0-1.2-0.5-1.2-1.2v-2.3h70.5v2.3C319.3,352.3,318.8,352.9,318.1,352.9z"/>
			<rect x="248.8" y="335.1" class="st1" width="70.5" height="3.6"/>
		</g>
		<path class="st1" d="M280.6,306.6h-30.6c-0.7,0-1.2,0.5-1.2,1.2v22.6c0,0.7,0.5,1.2,1.2,1.2h30.6c0.7,0,1.2-0.5,1.2-1.2v-22.6
			C281.8,307.1,281.2,306.6,280.6,306.6z"/>
		<g>
			<path class="st0" d="M252.1,309.4l0.3,0.8l0.9,0c0.1,0,0.2,0.1,0.1,0.2l-0.7,0.5l0.3,0.8c0,0.1-0.1,0.2-0.2,0.1l-0.7-0.5
				l-0.7,0.5c-0.1,0.1-0.2,0-0.2-0.1l0.3-0.8l-0.7-0.5c-0.1-0.1,0-0.2,0.1-0.2l0.9,0l0.3-0.8C251.9,309.3,252.1,309.3,252.1,309.4z"
				/>
			<path class="st0" d="M252.1,313.6l0.3,0.8l0.9,0c0.1,0,0.2,0.1,0.1,0.2l-0.7,0.5l0.3,0.8c0,0.1-0.1,0.2-0.2,0.1l-0.7-0.5
				l-0.7,0.5c-0.1,0.1-0.2,0-0.2-0.1l0.3-0.8l-0.7-0.5c-0.1-0.1,0-0.2,0.1-0.2l0.9,0l0.3-0.8C251.9,313.5,252.1,313.5,252.1,313.6z"
				/>
			<path class="st0" d="M252.1,317.8l0.3,0.8l0.9,0c0.1,0,0.2,0.1,0.1,0.2l-0.7,0.5l0.3,0.8c0,0.1-0.1,0.2-0.2,0.1l-0.7-0.5
				l-0.7,0.5c-0.1,0.1-0.2,0-0.2-0.1l0.3-0.8l-0.7-0.5c-0.1-0.1,0-0.2,0.1-0.2l0.9,0l0.3-0.8C251.9,317.7,252.1,317.7,252.1,317.8z"
				/>
			<path class="st0" d="M252.1,322l0.3,0.8l0.9,0c0.1,0,0.2,0.1,0.1,0.2l-0.7,0.5l0.3,0.8c0,0.1-0.1,0.2-0.2,0.1L252,324l-0.7,0.5
				c-0.1,0.1-0.2,0-0.2-0.1l0.3-0.8l-0.7-0.5c-0.1-0.1,0-0.2,0.1-0.2l0.9,0l0.3-0.8C251.9,321.9,252.1,321.9,252.1,322z"/>
			<path class="st0" d="M252.1,326.3l0.3,0.8l0.9,0c0.1,0,0.2,0.1,0.1,0.2l-0.7,0.5l0.3,0.8c0,0.1-0.1,0.2-0.2,0.1l-0.7-0.5
				l-0.7,0.5c-0.1,0.1-0.2,0-0.2-0.1l0.3-0.8l-0.7-0.5c-0.1-0.1,0-0.2,0.1-0.2l0.9,0l0.3-0.8C251.9,326.2,252.1,326.2,252.1,326.3z"
				/>
			<path class="st0" d="M255.4,311.4l0.3,0.8l0.9,0c0.1,0,0.2,0.1,0.1,0.2l-0.7,0.5l0.3,0.8c0,0.1-0.1,0.2-0.2,0.1l-0.7-0.5
				l-0.7,0.5c-0.1,0.1-0.2,0-0.2-0.1l0.3-0.8l-0.7-0.5c-0.1-0.1,0-0.2,0.1-0.2l0.9,0l0.3-0.8C255.2,311.3,255.4,311.3,255.4,311.4z"
				/>
			<path class="st0" d="M255.4,315.7l0.3,0.8l0.9,0c0.1,0,0.2,0.1,0.1,0.2l-0.7,0.5l0.3,0.8c0,0.1-0.1,0.2-0.2,0.1l-0.7-0.5
				l-0.7,0.5c-0.1,0.1-0.2,0-0.2-0.1l0.3-0.8l-0.7-0.5c-0.1-0.1,0-0.2,0.1-0.2l0.9,0l0.3-0.8C255.2,315.6,255.4,315.6,255.4,315.7z"
				/>
			<path class="st0" d="M255.4,319.9l0.3,0.8l0.9,0c0.1,0,0.2,0.1,0.1,0.2l-0.7,0.5l0.3,0.8c0,0.1-0.1,0.2-0.2,0.1l-0.7-0.5
				l-0.7,0.5c-0.1,0.1-0.2,0-0.2-0.1l0.3-0.8l-0.7-0.5c-0.1-0.1,0-0.2,0.1-0.2l0.9,0l0.3-0.8C255.2,319.8,255.4,319.8,255.4,319.9z"
				/>
			<path class="st0" d="M255.4,324.1l0.3,0.8l0.9,0c0.1,0,0.2,0.1,0.1,0.2l-0.7,0.5l0.3,0.8c0,0.1-0.1,0.2-0.2,0.1l-0.7-0.5
				l-0.7,0.5c-0.1,0.1-0.2,0-0.2-0.1l0.3-0.8l-0.7-0.5c-0.1-0.1,0-0.2,0.1-0.2l0.9,0l0.3-0.8C255.2,324,255.4,324,255.4,324.1z"/>
			<path class="st0" d="M258.7,309.4l0.3,0.8l0.9,0c0.1,0,0.2,0.1,0.1,0.2l-0.7,0.5l0.3,0.8c0,0.1-0.1,0.2-0.2,0.1l-0.7-0.5
				l-0.7,0.5c-0.1,0.1-0.2,0-0.2-0.1l0.3-0.8l-0.7-0.5c-0.1-0.1,0-0.2,0.1-0.2l0.9,0l0.3-0.8C258.5,309.3,258.6,309.3,258.7,309.4z"
				/>
			<path class="st0" d="M258.7,313.6l0.3,0.8l0.9,0c0.1,0,0.2,0.1,0.1,0.2l-0.7,0.5l0.3,0.8c0,0.1-0.1,0.2-0.2,0.1l-0.7-0.5
				l-0.7,0.5c-0.1,0.1-0.2,0-0.2-0.1l0.3-0.8l-0.7-0.5c-0.1-0.1,0-0.2,0.1-0.2l0.9,0l0.3-0.8C258.5,313.5,258.6,313.5,258.7,313.6z"
				/>
			<path class="st0" d="M258.7,317.8l0.3,0.8l0.9,0c0.1,0,0.2,0.1,0.1,0.2l-0.7,0.5l0.3,0.8c0,0.1-0.1,0.2-0.2,0.1l-0.7-0.5
				l-0.7,0.5c-0.1,0.1-0.2,0-0.2-0.1l0.3-0.8l-0.7-0.5c-0.1-0.1,0-0.2,0.1-0.2l0.9,0l0.3-0.8C258.5,317.7,258.6,317.7,258.7,317.8z"
				/>
			<path class="st0" d="M258.7,322l0.3,0.8l0.9,0c0.1,0,0.2,0.1,0.1,0.2l-0.7,0.5l0.3,0.8c0,0.1-0.1,0.2-0.2,0.1l-0.7-0.5l-0.7,0.5
				c-0.1,0.1-0.2,0-0.2-0.1l0.3-0.8l-0.7-0.5c-0.1-0.1,0-0.2,0.1-0.2l0.9,0l0.3-0.8C258.5,321.9,258.6,321.9,258.7,322z"/>
			<path class="st0" d="M258.7,326.3l0.3,0.8l0.9,0c0.1,0,0.2,0.1,0.1,0.2l-0.7,0.5l0.3,0.8c0,0.1-0.1,0.2-0.2,0.1l-0.7-0.5
				l-0.7,0.5c-0.1,0.1-0.2,0-0.2-0.1l0.3-0.8l-0.7-0.5c-0.1-0.1,0-0.2,0.1-0.2l0.9,0l0.3-0.8C258.5,326.2,258.6,326.2,258.7,326.3z"
				/>
			<path class="st0" d="M261.9,311.4l0.3,0.8l0.9,0c0.1,0,0.2,0.1,0.1,0.2l-0.7,0.5l0.3,0.8c0,0.1-0.1,0.2-0.2,0.1l-0.7-0.5
				l-0.7,0.5c-0.1,0.1-0.2,0-0.2-0.1l0.3-0.8l-0.7-0.5c-0.1-0.1,0-0.2,0.1-0.2l0.9,0l0.3-0.8C261.8,311.3,261.9,311.3,261.9,311.4z"
				/>
			<path class="st0" d="M261.9,315.7l0.3,0.8l0.9,0c0.1,0,0.2,0.1,0.1,0.2l-0.7,0.5l0.3,0.8c0,0.1-0.1,0.2-0.2,0.1l-0.7-0.5
				l-0.7,0.5c-0.1,0.1-0.2,0-0.2-0.1l0.3-0.8l-0.7-0.5c-0.1-0.1,0-0.2,0.1-0.2l0.9,0l0.3-0.8C261.8,315.6,261.9,315.6,261.9,315.7z"
				/>
			<path class="st0" d="M261.9,319.9l0.3,0.8l0.9,0c0.1,0,0.2,0.1,0.1,0.2l-0.7,0.5l0.3,0.8c0,0.1-0.1,0.2-0.2,0.1l-0.7-0.5
				l-0.7,0.5c-0.1,0.1-0.2,0-0.2-0.1l0.3-0.8l-0.7-0.5c-0.1-0.1,0-0.2,0.1-0.2l0.9,0l0.3-0.8C261.8,319.8,261.9,319.8,261.9,319.9z"
				/>
			<path class="st0" d="M261.9,324.1l0.3,0.8l0.9,0c0.1,0,0.2,0.1,0.1,0.2l-0.7,0.5l0.3,0.8c0,0.1-0.1,0.2-0.2,0.1l-0.7-0.5
				l-0.7,0.5c-0.1,0.1-0.2,0-0.2-0.1l0.3-0.8l-0.7-0.5c-0.1-0.1,0-0.2,0.1-0.2l0.9,0l0.3-0.8C261.8,324,261.9,324,261.9,324.1z"/>
			<path class="st0" d="M265.2,309.4l0.3,0.8l0.9,0c0.1,0,0.2,0.1,0.1,0.2l-0.7,0.5l0.3,0.8c0,0.1-0.1,0.2-0.2,0.1l-0.7-0.5
				l-0.7,0.5c-0.1,0.1-0.2,0-0.2-0.1l0.3-0.8l-0.7-0.5c-0.1-0.1,0-0.2,0.1-0.2l0.9,0l0.3-0.8C265,309.3,265.2,309.3,265.2,309.4z"/>
			<path class="st0" d="M265.2,313.6l0.3,0.8l0.9,0c0.1,0,0.2,0.1,0.1,0.2l-0.7,0.5l0.3,0.8c0,0.1-0.1,0.2-0.2,0.1l-0.7-0.5
				l-0.7,0.5c-0.1,0.1-0.2,0-0.2-0.1l0.3-0.8l-0.7-0.5c-0.1-0.1,0-0.2,0.1-0.2l0.9,0l0.3-0.8C265,313.5,265.2,313.5,265.2,313.6z"/>
			<path class="st0" d="M265.2,317.8l0.3,0.8l0.9,0c0.1,0,0.2,0.1,0.1,0.2l-0.7,0.5l0.3,0.8c0,0.1-0.1,0.2-0.2,0.1l-0.7-0.5
				l-0.7,0.5c-0.1,0.1-0.2,0-0.2-0.1l0.3-0.8l-0.7-0.5c-0.1-0.1,0-0.2,0.1-0.2l0.9,0l0.3-0.8C265,317.7,265.2,317.7,265.2,317.8z"/>
			<path class="st0" d="M265.2,322l0.3,0.8l0.9,0c0.1,0,0.2,0.1,0.1,0.2l-0.7,0.5l0.3,0.8c0,0.1-0.1,0.2-0.2,0.1l-0.7-0.5l-0.7,0.5
				c-0.1,0.1-0.2,0-0.2-0.1l0.3-0.8l-0.7-0.5c-0.1-0.1,0-0.2,0.1-0.2l0.9,0l0.3-0.8C265,321.9,265.2,321.9,265.2,322z"/>
			<path class="st0" d="M265.2,326.3l0.3,0.8l0.9,0c0.1,0,0.2,0.1,0.1,0.2l-0.7,0.5l0.3,0.8c0,0.1-0.1,0.2-0.2,0.1l-0.7-0.5
				l-0.7,0.5c-0.1,0.1-0.2,0-0.2-0.1l0.3-0.8l-0.7-0.5c-0.1-0.1,0-0.2,0.1-0.2l0.9,0l0.3-0.8C265,326.2,265.2,326.2,265.2,326.3z"/>
			<path class="st0" d="M268.5,311.4l0.3,0.8l0.9,0c0.1,0,0.2,0.1,0.1,0.2L269,313l0.3,0.8c0,0.1-0.1,0.2-0.2,0.1l-0.7-0.5l-0.7,0.5
				c-0.1,0.1-0.2,0-0.2-0.1l0.3-0.8l-0.7-0.5c-0.1-0.1,0-0.2,0.1-0.2l0.9,0l0.3-0.8C268.3,311.3,268.5,311.3,268.5,311.4z"/>
			<path class="st0" d="M268.5,315.7l0.3,0.8l0.9,0c0.1,0,0.2,0.1,0.1,0.2l-0.7,0.5l0.3,0.8c0,0.1-0.1,0.2-0.2,0.1l-0.7-0.5
				l-0.7,0.5c-0.1,0.1-0.2,0-0.2-0.1l0.3-0.8l-0.7-0.5c-0.1-0.1,0-0.2,0.1-0.2l0.9,0l0.3-0.8C268.3,315.6,268.5,315.6,268.5,315.7z"
				/>
			<path class="st0" d="M268.5,319.9l0.3,0.8l0.9,0c0.1,0,0.2,0.1,0.1,0.2l-0.7,0.5l0.3,0.8c0,0.1-0.1,0.2-0.2,0.1l-0.7-0.5
				l-0.7,0.5c-0.1,0.1-0.2,0-0.2-0.1l0.3-0.8l-0.7-0.5c-0.1-0.1,0-0.2,0.1-0.2l0.9,0l0.3-0.8C268.3,319.8,268.5,319.8,268.5,319.9z"
				/>
			<path class="st0" d="M268.5,324.1l0.3,0.8l0.9,0c0.1,0,0.2,0.1,0.1,0.2l-0.7,0.5l0.3,0.8c0,0.1-0.1,0.2-0.2,0.1l-0.7-0.5
				l-0.7,0.5c-0.1,0.1-0.2,0-0.2-0.1l0.3-0.8l-0.7-0.5c-0.1-0.1,0-0.2,0.1-0.2l0.9,0l0.3-0.8C268.3,324,268.5,324,268.5,324.1z"/>
			<path class="st0" d="M271.8,309.4l0.3,0.8l0.9,0c0.1,0,0.2,0.1,0.1,0.2l-0.7,0.5l0.3,0.8c0,0.1-0.1,0.2-0.2,0.1l-0.7-0.5
				l-0.7,0.5c-0.1,0.1-0.2,0-0.2-0.1l0.3-0.8l-0.7-0.5c-0.1-0.1,0-0.2,0.1-0.2l0.9,0l0.3-0.8C271.6,309.3,271.7,309.3,271.8,309.4z"
				/>
			<path class="st0" d="M271.8,313.6l0.3,0.8l0.9,0c0.1,0,0.2,0.1,0.1,0.2l-0.7,0.5l0.3,0.8c0,0.1-0.1,0.2-0.2,0.1l-0.7-0.5
				l-0.7,0.5c-0.1,0.1-0.2,0-0.2-0.1l0.3-0.8l-0.7-0.5c-0.1-0.1,0-0.2,0.1-0.2l0.9,0l0.3-0.8C271.6,313.5,271.7,313.5,271.8,313.6z"
				/>
			<path class="st0" d="M271.8,317.8l0.3,0.8l0.9,0c0.1,0,0.2,0.1,0.1,0.2l-0.7,0.5l0.3,0.8c0,0.1-0.1,0.2-0.2,0.1l-0.7-0.5
				l-0.7,0.5c-0.1,0.1-0.2,0-0.2-0.1l0.3-0.8l-0.7-0.5c-0.1-0.1,0-0.2,0.1-0.2l0.9,0l0.3-0.8C271.6,317.7,271.7,317.7,271.8,317.8z"
				/>
			<path class="st0" d="M271.8,322l0.3,0.8l0.9,0c0.1,0,0.2,0.1,0.1,0.2l-0.7,0.5l0.3,0.8c0,0.1-0.1,0.2-0.2,0.1l-0.7-0.5l-0.7,0.5
				c-0.1,0.1-0.2,0-0.2-0.1l0.3-0.8l-0.7-0.5c-0.1-0.1,0-0.2,0.1-0.2l0.9,0l0.3-0.8C271.6,321.9,271.7,321.9,271.8,322z"/>
			<path class="st0" d="M271.8,326.3l0.3,0.8l0.9,0c0.1,0,0.2,0.1,0.1,0.2l-0.7,0.5l0.3,0.8c0,0.1-0.1,0.2-0.2,0.1l-0.7-0.5
				l-0.7,0.5c-0.1,0.1-0.2,0-0.2-0.1l0.3-0.8l-0.7-0.5c-0.1-0.1,0-0.2,0.1-0.2l0.9,0l0.3-0.8C271.6,326.2,271.7,326.2,271.8,326.3z"
				/>
			<path class="st0" d="M275.1,311.4l0.3,0.8l0.9,0c0.1,0,0.2,0.1,0.1,0.2l-0.7,0.5l0.3,0.8c0,0.1-0.1,0.2-0.2,0.1l-0.7-0.5
				l-0.7,0.5c-0.1,0.1-0.2,0-0.2-0.1l0.3-0.8l-0.7-0.5c-0.1-0.1,0-0.2,0.1-0.2l0.9,0l0.3-0.8C274.9,311.3,275,311.3,275.1,311.4z"/>
			<path class="st0" d="M275.1,315.7l0.3,0.8l0.9,0c0.1,0,0.2,0.1,0.1,0.2l-0.7,0.5l0.3,0.8c0,0.1-0.1,0.2-0.2,0.1l-0.7-0.5
				l-0.7,0.5c-0.1,0.1-0.2,0-0.2-0.1l0.3-0.8l-0.7-0.5c-0.1-0.1,0-0.2,0.1-0.2l0.9,0l0.3-0.8C274.9,315.6,275,315.6,275.1,315.7z"/>
			<path class="st0" d="M275.1,319.9l0.3,0.8l0.9,0c0.1,0,0.2,0.1,0.1,0.2l-0.7,0.5l0.3,0.8c0,0.1-0.1,0.2-0.2,0.1l-0.7-0.5
				l-0.7,0.5c-0.1,0.1-0.2,0-0.2-0.1l0.3-0.8l-0.7-0.5c-0.1-0.1,0-0.2,0.1-0.2l0.9,0l0.3-0.8C274.9,319.8,275,319.8,275.1,319.9z"/>
			<path class="st0" d="M275.1,324.1l0.3,0.8l0.9,0c0.1,0,0.2,0.1,0.1,0.2l-0.7,0.5l0.3,0.8c0,0.1-0.1,0.2-0.2,0.1l-0.7-0.5
				l-0.7,0.5c-0.1,0.1-0.2,0-0.2-0.1l0.3-0.8l-0.7-0.5c-0.1-0.1,0-0.2,0.1-0.2l0.9,0l0.3-0.8C274.9,324,275,324,275.1,324.1z"/>
			<path class="st0" d="M278.3,309.4l0.3,0.8l0.9,0c0.1,0,0.2,0.1,0.1,0.2l-0.7,0.5l0.3,0.8c0,0.1-0.1,0.2-0.2,0.1l-0.7-0.5
				l-0.7,0.5c-0.1,0.1-0.2,0-0.2-0.1l0.3-0.8l-0.7-0.5c-0.1-0.1,0-0.2,0.1-0.2l0.9,0l0.3-0.8C278.1,309.3,278.3,309.3,278.3,309.4z"
				/>
			<path class="st0" d="M278.3,313.6l0.3,0.8l0.9,0c0.1,0,0.2,0.1,0.1,0.2l-0.7,0.5l0.3,0.8c0,0.1-0.1,0.2-0.2,0.1l-0.7-0.5
				l-0.7,0.5c-0.1,0.1-0.2,0-0.2-0.1l0.3-0.8l-0.7-0.5c-0.1-0.1,0-0.2,0.1-0.2l0.9,0l0.3-0.8C278.1,313.5,278.3,313.5,278.3,313.6z"
				/>
			<path class="st0" d="M278.3,317.8l0.3,0.8l0.9,0c0.1,0,0.2,0.1,0.1,0.2l-0.7,0.5l0.3,0.8c0,0.1-0.1,0.2-0.2,0.1l-0.7-0.5
				l-0.7,0.5c-0.1,0.1-0.2,0-0.2-0.1l0.3-0.8l-0.7-0.5c-0.1-0.1,0-0.2,0.1-0.2l0.9,0l0.3-0.8C278.1,317.7,278.3,317.7,278.3,317.8z"
				/>
			<path class="st0" d="M278.3,322l0.3,0.8l0.9,0c0.1,0,0.2,0.1,0.1,0.2l-0.7,0.5l0.3,0.8c0,0.1-0.1,0.2-0.2,0.1l-0.7-0.5l-0.7,0.5
				c-0.1,0.1-0.2,0-0.2-0.1l0.3-0.8l-0.7-0.5c-0.1-0.1,0-0.2,0.1-0.2l0.9,0l0.3-0.8C278.1,321.9,278.3,321.9,278.3,322z"/>
			<path class="st0" d="M278.3,326.3l0.3,0.8l0.9,0c0.1,0,0.2,0.1,0.1,0.2l-0.7,0.5l0.3,0.8c0,0.1-0.1,0.2-0.2,0.1l-0.7-0.5
				l-0.7,0.5c-0.1,0.1-0.2,0-0.2-0.1l0.3-0.8l-0.7-0.5c-0.1-0.1,0-0.2,0.1-0.2l0.9,0l0.3-0.8C278.1,326.2,278.3,326.2,278.3,326.3z"
				/>
		</g>
		<path class="st1" d="M195.3,352.9H173c-0.7,0-1.2-0.5-1.2-1.2v-43.8c0-0.7,0.5-1.2,1.2-1.2h22.3V352.9z"/>
		<rect x="195.3" y="306.7" class="st0" width="23.5" height="46.2"/>
		<path class="st1" d="M241.1,352.9h-22.3v-46.2h22.3c0.7,0,1.2,0.5,1.2,1.2v43.8C242.3,352.3,241.7,352.9,241.1,352.9z"/>
		<g>
			<polygon class="st1" points="209.1,330.9 207,331.9 207,332.9 208.1,332.9 			"/>
			<g>
				<path class="st1" d="M207,335.6c-0.3,0-0.5-0.2-0.5-0.5v-2.1c0-0.3,0.2-0.5,0.5-0.5s0.5,0.2,0.5,0.5v2.1
					C207.5,335.3,207.3,335.6,207,335.6z"/>
				<path class="st1" d="M207,333.5c-2.1,0-4-0.8-5.6-2.2c-0.2-0.2-0.2-0.5,0-0.7c0.2-0.2,0.5-0.2,0.7,0c1.4,1.3,3.1,2,4.9,2
					c1.8,0,3.5-0.7,4.9-2c0.2-0.2,0.5-0.2,0.7,0c0.2,0.2,0.2,0.5,0,0.7C211.1,332.7,209.1,333.5,207,333.5z"/>
			</g>
			<path class="st1" d="M207,335.6c-1.3,0-2.6-0.4-3.8-1.1l0.6-0.9c1.9,1.3,4.5,1.3,6.4,0l0.6,0.9
				C209.7,335.2,208.4,335.6,207,335.6z"/>
			<polygon class="st1" points="206.2,328.5 205,330.3 204.8,330.9 207.9,330.2 			"/>
			<path class="st1" d="M203.8,331.4c-1.4,0-3-1.2-3.5-3.8l1-0.2c0.4,2.2,1.7,2.9,2.5,2.9c0.2,0,0.5-0.1,0.5-0.3
				c0-0.2,0-0.3-0.5-0.4c-0.3-0.1-0.6-0.2-0.9-0.5c-1-1.1,0.3-2.3,1-2.8c0.1-0.1,0.2-0.2,0.1-0.2c0-0.1-0.2-0.2-0.5-0.2
				c-0.7,0-1.2-0.4-1.3-1c-0.2-0.6,0.1-1.3,0.7-1.6l0.5,0.9c-0.1,0.1-0.2,0.3-0.1,0.4c0,0.1,0,0.2,0.3,0.2c0.6,0,1.3,0.4,1.5,0.9
				c0.1,0.2,0.2,0.8-0.4,1.4c-0.7,0.6-1.1,1.1-0.9,1.3c0.1,0.1,0.3,0.1,0.4,0.2c0.5,0.2,1.4,0.5,1.2,1.6
				C205.3,330.9,204.7,331.4,203.8,331.4C203.9,331.4,203.8,331.4,203.8,331.4z"/>
			<path class="st1" d="M208.1,325.6c0,0,1-2.1-1-3.1c0,0,7.3-1,6.3,8.4l0,0c-0.7-0.6-1.7-1.6-2.1-2.4l-3.2-1.8V325.6L208.1,325.6z"
				/>
			<path class="st1" d="M207,327.7l5.2,3.1c0,0,0,0-2.1,1l-3.1-3.1V327.7z"/>
			<path class="st1" d="M204.9,324.6L204.9,324.6c0.6,0,1,0.5,1,1l0,0c-0.6,0.6-0.8,1.6-0.4,2.4l0.2,0.5c0.1,0.2,0.2,0.4,0.4,0.5
				l2.9,2.9v-1.4c0-1.8-0.4-3.6-1.2-5.2l0,0c-0.5-1.1-1.6-1.7-2.8-1.7h-0.2L204.9,324.6L204.9,324.6L204.9,324.6L204.9,324.6z"/>
			<path class="st1" d="M204.9,323.5l-1,1v1c0,0,1.2-0.6,1.7-0.8c0.3-0.1,0.2-0.5,0.1-0.6C205.5,324,204.9,323.5,204.9,323.5z"/>
			<path class="st1" d="M207,337.7c-4.9,0-8.9-4-8.9-8.9h1c0,4.3,3.5,7.9,7.9,7.9s7.9-3.5,7.9-7.9h1
				C215.9,333.7,211.9,337.7,207,337.7z"/>
			<g>
				<circle class="st1" cx="199.2" cy="331.9" r="0.7"/>
				<circle class="st1" cx="200.8" cy="334.4" r="0.7"/>
				<circle class="st1" cx="203.3" cy="336.3" r="0.7"/>
				<circle class="st1" cx="214.9" cy="331.9" r="0.7"/>
				<circle class="st1" cx="213.3" cy="334.4" r="0.7"/>
				<circle class="st1" cx="210.8" cy="336.3" r="0.7"/>
			</g>
			<path class="st1" d="M207.5,336.1h-1c-0.6,0-1-0.5-1-1l0,0c0-0.6,0.5-1,1-1h1c0.6,0,1,0.5,1,1l0,0
				C208.6,335.6,208.1,336.1,207.5,336.1z"/>
			<path class="st1" d="M211.2,328.5c0.3,1,1.1,2,2.1,2.4l0,0c1-9.4-6.3-8.4-6.3-8.4C212.3,322.5,211.2,328.5,211.2,328.5z"/>
		</g>
		<path class="st1" d="M164.1,306.7h-22.3v0h-23.5v0H96c-0.7,0-1.2,0.5-1.2,1.2v43.8c0,0.7,0.5,1.2,1.2,1.2h21.7v0h24.1v0h22.3
			c0.7,0,1.2-0.5,1.2-1.2v-43.8C165.3,307.2,164.8,306.7,164.1,306.7z"/>
		<polygon class="st0" points="130,317 147.4,329.8 130,342.5 112.7,329.8 		"/>
		<circle class="st0" cx="130" cy="329.8" r="7.3"/>
		<path class="st1" d="M126.4,329.3c-1.3,0-2.5,0.2-3.6,0.6c0.1,4,3.3,7.2,7.3,7.2c2.5,0,4.7-1.2,6-3.1
			C133.8,331.1,130.3,329.3,126.4,329.3z"/>
		<path class="st1" d="M137.2,331.2c0.1-0.5,0.1-0.9,0.1-1.4c0-4-3.3-7.3-7.3-7.3c-3,0-5.6,1.8-6.7,4.4c1-0.2,2-0.3,3.1-0.3
			C130.6,326.6,134.5,328.3,137.2,331.2z"/>
	</g>
	<g>
		<path class="st2" d="M389.8,233.2c0.2-0.6,0.3-1.2,0.4-1.8c0.1-0.6,0.2-1.1,0.3-1.5c0.2-0.9,0.3-1.5,0.3-1.5
			c0.2,0,0.4,0.1,0.6,0.2C390.9,230.3,390.4,231.8,389.8,233.2z"/>
		<path class="st2" d="M381.5,236c0.1-0.5,0.2-1,0.4-1.4c0.1,0.2,0.3,0.3,0.4,0.4C382,235.3,381.7,235.6,381.5,236z"/>
		<path class="st2" d="M391.5,228.7c2.1,0.8,3.9,3.4,6.7,1.3c0.3-1.4,0.7-3.4,1.1-5.5c0.4-2.1,0.7-4.2,0.9-5.6
			c1.6-2.6,2.4,0.4,3.7,0.5c0.4-2.8,0.8-5.7,1.4-5.6c0.5-0.4,0.8-0.4,1.2-0.3c0.3,0.1,0.6,0.5,0.7,1.2c0.3,1.3,0.4,3.5,0.2,6.4
			c-2.1,2.9-4.4,6.8-6.5,10.6c-1,1.9-2.1,3.7-3.1,5.4c-1,1.6-1.9,3.1-2.7,4.2c-1.6,2.2-3,3-3.5,1.3c-0.2-0.8-0.4-2.3-0.4-4.6
			c0-1.1,0.1-2.5,0.1-4c0.1-0.8,0.1-1.6,0.2-2.5C391.4,230.6,391.4,229.7,391.5,228.7z"/>
		<path class="st2" d="M381.2,248c1.4-4.4,2.8-8.9,3.8-13.4c1.7-1.1,3.6-2.7,4.6-1C386.9,240.6,384.3,244.5,381.2,248z"/>
		<path class="st2" d="M387.2,174.3c-0.4,0-0.5,0.3,0.2,2.6C387.3,176,387.3,175.1,387.2,174.3c0.3-0.1,0.9,0,1-1.2
			c0.1,9.2-0.3,19.8-1.3,30.1c-0.8,1.3-1.6,2.5-2.3,3.6c1.4-12.5,1.3-25.2,0.4-37.2c-0.9-12.1-2.6-23.5-4.2-34
			c0.5,1.8,1.1,3.5,1.5,5.2c0.4,1.7,0.8,3.3,1.2,4.9c0.2,0.8,0.4,1.6,0.5,2.4c0.2,0.8,0.3,1.6,0.4,2.4c0.3,1.6,0.5,3.1,0.8,4.6
			c0.1,0.8,0.3,1.5,0.4,2.3c0.1,0.8,0.2,1.5,0.3,2.3c0.2,1.5,0.4,3.1,0.5,4.7c0.2,1.6,0.3,3.2,0.5,4.9
			C386.9,170.8,387.1,172.5,387.2,174.3z"/>
		<path class="st2" d="M380.7,208.4c-0.1,0.9-0.2,1.7-0.3,2.5C380.1,208.5,380.3,208.3,380.7,208.4z"/>
		<path class="st2" d="M66.4,63.4C55,75.2,45.1,86,36.1,98.2c4.1-6.8,8.8-13.3,13.5-19.6c4.9-6.1,10-12,15.3-17.2
			c10.6-10.6,21.8-19.1,32.1-25C85.9,44.2,75.6,53.2,66.4,63.4z"/>
		<path class="st2" d="M6.1,167.9c0-0.7,0.1-1.4,0.1-2c0.1-0.7,0.1-1.3,0.2-2c0.1-1.3,0.3-2.6,0.4-3.9c0.2-1.3,0.3-2.6,0.5-3.8
			c0.2-1.3,0.5-2.5,0.7-3.7c0.5-2.5,1-4.9,1.6-7.2c0.6-2.3,1.3-4.6,2-6.8c0.4-1.1,0.7-2.2,1.1-3.3c0.4-1.1,0.8-2.1,1.2-3.2
			c0.8-2.1,1.6-4.2,2.5-6.2c0.9-2,1.9-4,2.9-5.9c0.5-1,0.9-1.9,1.5-2.9c0.5-0.9,1.1-1.9,1.6-2.8c-7.2,15.7-12,32.3-14.8,49.2
			c-0.3,0.8-0.5,1.6-0.8,2.4C6.6,166.4,6.3,167.2,6.1,167.9z"/>
		<path class="st2" d="M13.9,145c0.6-2.4,1.2-4.7,1.8-6.9c0.3-1.1,0.7-2.2,1.1-3.3c0.4-1.1,0.8-2.2,1.1-3.2
			c1.5-4.3,3.4-8.3,5.2-12.2c3.9-7.7,8.2-14.7,13-21.1c-2.4,3.8-4.5,7.8-6.7,11.6c-1,2-2,4-3,5.9c-0.5,1-1,2-1.5,2.9
			c-0.5,1-0.9,2-1.4,3c-0.9,2-1.8,4-2.7,5.9c-0.8,2-1.6,4-2.4,5.9c-0.4,1-0.8,1.9-1.2,2.9c-0.4,1-0.7,1.9-1.1,2.9
			C15.3,141.2,14.6,143.2,13.9,145z"/>
		<path class="st2" d="M287.5,74.2c3.2,3.4,5.7,6.1,7.6,8.3c1,1.1,1.8,2,2.6,2.8c0.7,0.8,1.3,1.5,1.9,2.1c0.4,1.6,1.1,3.5,1.8,6.2
			c-0.4-0.4-0.7-0.7-1.1-1.1c-5.7-7.1-12.4-13.7-20-19.5c-1.5-1.3-2.9-2.7-4.2-4c-1.4-1.3-2.7-2.5-3.8-3.7l3.9,2
			c1.3,0.7,2.6,1.5,3.8,2.2C282.7,70.9,285.1,72.6,287.5,74.2z"/>
		<path class="st2" d="M299.6,87.5c-0.9-3.3-0.9-4.5-0.4-4.5c0.5,0.1,1.4,1.3,2.2,2.7C302.9,88.5,303.8,91.8,299.6,87.5z"/>
		<path class="st2" d="M262,21.5c-0.6-0.2-1.1-0.3-1.7-0.5c-1.6-0.6-3.2-1.3-4.8-1.9C257.7,20,259.8,20.7,262,21.5z"/>
		<path class="st2" d="M132.2,48.7c8.2-4,16.7-7.2,25.4-9.4c-17.6,5.1-34.4,13.4-47.8,21.4c0.9-0.7,1.8-1.5,2.6-2.3
			c0.8-0.8,1.7-1.6,2.7-2.2c2.3-0.8,5-1.9,8-3.1c1.5-0.6,3-1.4,4.5-2.1C129.2,50.3,130.7,49.5,132.2,48.7z"/>
		<path class="st2" d="M297.7,41c-10.6-7.6-22.5-14.2-35.7-19.5c13.5,4.5,26.6,10.7,39,18.2l1.2,0.7l1.1,0.8l2.3,1.5
			c1.5,1,3,2,4.5,3c2.9,2.2,5.9,4.2,8.7,6.6l4.2,3.4l4.1,3.6l2,1.8c0.7,0.6,1.3,1.3,2,1.9l3.9,3.8c10.7,12.4,19.9,25.5,27.2,39.7
			l1.4,2.6c0.4,0.9,0.8,1.8,1.3,2.7c0.8,1.8,1.7,3.6,2.5,5.4c1.5,3.7,3.1,7.4,4.4,11.2c2.7,7.6,4.8,15.4,6.3,23.5
			c0.2,1.9,0.5,3.8,0.8,5.6c0.2,1.8,0.4,3.7,0.6,5.4c0.4,3.4,0.4,6.6,0,9.2c-1.1,3.7-2.6,7.3-4,10.4c-0.1-9.6-0.9-19.5-2-28.1
			c0,1.1-0.5,1.1-0.9,1.2c-0.3-1.6-0.6-3.2-0.9-4.7c-0.3-1.5-0.7-3-1-4.5c-0.3-1.5-0.6-2.9-1-4.3c-0.4-1.4-0.7-2.8-1.1-4.2
			c-0.7-2.8-1.6-5.6-2.6-8.5c-0.2-0.7-0.5-1.5-0.7-2.2c-0.3-0.7-0.6-1.5-0.9-2.2c-0.6-1.5-1.2-3-1.9-4.6c2.5,9.6,5.3,20.1,7.4,31.1
			c2.1,11.1,3.5,22.8,3.6,34.5c-0.7,1.2-1.5,2.3-2.2,3.3c-0.5-24-5.7-48.1-15.6-70.3c-4.9-11.1-11-21.7-18-31.6
			c-7.1-9.9-15.2-19.1-24-27.3c-6.3-6.2-13.1-12.1-20.7-17.3c2,1.1,4,2.2,6,3.3c2,1.2,3.9,2.4,5.9,3.5l-6.1-4.1l-6.3-3.8
			c-2-1.2-4.1-2.2-6.2-3.4c-6.6-4-13.5-7.8-20.9-11c-3.7-1.7-7.5-3-11.4-4.5c-2-0.6-4-1.3-6-1.9c-1-0.3-2-0.7-3-0.9
			c-1-0.3-2.1-0.5-3.1-0.8c6.6,1.9,13.1,4.3,19.5,6.9c1.6,0.7,3.2,1.4,4.7,2.1l2.4,1.1l1.2,0.5l1.2,0.6c3.1,1.6,6.2,3.1,9.2,4.9
			c-3.1-1.5-6.4-2.7-9.7-4.1c-1.6-0.7-3.3-1.2-5-1.8c-1.7-0.5-3.3-1.2-5-1.7l-5.1-1.5c-0.9-0.2-1.7-0.5-2.6-0.7l-2.6-0.6l-5.2-1.2
			l-5.2-1c-3.5-0.8-7-1.2-10.4-1.7c-1.7-0.3-3.5-0.5-5.2-0.7c-1.7-0.2-3.5-0.4-5.2-0.6c-1.7-0.1-3.5-0.3-5.2-0.4
			c-1.7-0.1-3.5-0.3-5.2-0.4c-3.5-0.1-6.9-0.4-10.3-0.4c-7.3-0.6-15.9-0.2-24.7,0.9c-8.9,1-17.9,3.1-26.4,5.2
			c-0.4-0.1-0.8-0.2-1.2-0.3c-1.2,0.5-2.5,1-3.7,1.5c-2.2,0.5-4.7,0.9-6.2,1.2c-8.7,3.1-17.3,6.8-25.7,11.3
			c-8.3,4.6-16.4,9.9-24.1,16.2c-1.4,1-2.8,2-4.2,3.1c-2.1,1.6-4.4,3.9-6.7,6.3c-2.1,2.5-4.3,5-6,7c1.3-1.5,2.7-3,4-4.4
			c0.7-0.7,1.4-1.4,2-2.2c0.7-0.7,1.4-1.4,2.1-2c1.4-1.3,2.8-2.7,4.2-4c1.5-1.3,2.9-2.5,4.4-3.7c9.1-6.5,17.8-11.1,26.8-15.5
			c9-4.4,18.2-8.5,29.2-13.2c1.5-0.3,3-0.6,3.9-0.9c0.3-0.1,0.7-0.2,1-0.3c1.8,0.3,4,0.2,6.6-0.1c2.6-0.3,5.6-1,8.9-1.5
			c1.6-0.3,3.3-0.7,5-1c1.7-0.3,3.5-0.6,5.2-1c3.5-0.8,7.1-1.2,10.6-1.8c-1.1,0.8,0.1,0.8,1.7,0.7c1.6,0,3.4-0.1,3.5,0.6
			c7.4,0.3,14.8,1.4,21.7,2.6c1.7,0.4,3.4,0.7,5.1,1.1c1.7,0.4,3.3,0.7,4.9,1.1c1.6,0.4,3.1,0.8,4.7,1.2c0.8,0.2,1.5,0.4,2.2,0.6
			c0.7,0.2,1.5,0.5,2.2,0.7c2.3,0.7,4.6,1.2,6.8,1.8c2.3,0.7,4.5,1.3,6.8,1.9c2.2,0.7,4.4,1.4,6.6,2c0.5,0.2,1.1,0.3,1.6,0.5
			l1.6,0.6c1.1,0.4,2.1,0.8,3.2,1.2c8.4,3.2,16.3,7,22.6,12.3c0.9,0.7,2,1.7,3.4,2.5c1.3,0.9,2.9,1.7,4.5,2.7c1.6,1,3.2,2,4.8,3
			c1.6,1,3,2.2,4.4,3.2c1,1.1,2.1,2,3.2,3.2c1.1,1.1,2.2,2.3,3.3,3.4c-1.4-0.9-2.8-1.8-4.2-2.7c-1.4-0.9-2.9-1.7-4.3-2.5
			c-0.3-0.1,0.2,0.4,1.3,1.3c0.5,0.4,1.2,1,2,1.7c0.8,0.7,1.6,1.5,2.6,2.3c1,0.9,2,1.8,3.1,2.8c1.1,1,2.2,2.1,3.4,3.3
			c0.6,0.6,1.2,1.1,1.8,1.7c0.6,0.6,1.2,1.2,1.7,1.9c1.2,1.3,2.4,2.5,3.5,3.8c2.2,2.7,4.5,5.3,6.4,8c1,1.3,1.9,2.5,2.7,3.8
			c0.8,1.2,1.5,2.4,2.2,3.5c1.4,2.1,2.3,4,2.8,5.3c0.5,1.3,0.7,2,0.3,2c-0.1,0-0.5-0.5-1.3-1.6c-0.8-1.1-1.8-2.7-3.4-4.6
			c-0.7-1-1.5-2-2.4-3.2c-0.9-1.2-1.9-2.3-3-3.6c-2.1-2.6-4.6-5.3-7.3-8.2c-5.5-5.7-12.3-11.6-19.7-16.9
			c-7.4-5.3-15.5-9.8-23.1-13.2c-3.4-0.4-2.9,2.3-1.3,5.2c0.8,1.4,1.8,3.2,2.9,4.5c1.1,1.4,2.2,2.5,3,3.1c0.3,0.4,0.7,0.8,1.1,1.1
			c-4.2-2.1-8.5-3.9-12.7-5.5c-6.5-3.3-13.4-6.2-20.6-8.4c-11.5-3.6-23.8-5.7-36.2-6.3c3.3,0.5,6.6,1,9.9,1.8
			c0.8,0.2,1.6,0.4,2.3,0.6c0.8,0.2,1.6,0.4,2.4,0.6c6.3,1.5,13.2,3.2,20.4,4.9c7.1,1.9,14.4,4,21.7,6.8C267,63.6,274,68,280.3,73
			c0.2,0.2,0.3,0.3,0.5,0.4c-8.7-5.5-18.3-9.7-27.9-12.8c-16.9-7.8-36.4-12-56.1-12c1.6,0.2,3.3,0.3,4.9,0.5
			c1.6,0.2,3.2,0.5,4.8,0.8c6.9,1.6,14.4,2.8,22.2,4.5c7.8,1.6,16,3.5,24.2,6.2c16.2,7.4,30.2,17.9,41,30.2c-1-1-2.1-1.8-3.2-2.7
			c-1.1-0.9-2.2-1.9-3.4-2.7c-1.2-0.9-2.3-1.8-3.5-2.6c-0.6-0.5-1.2-0.9-1.8-1.3l-1.8-1.3c-2.4-1.8-4.9-3.2-7.3-4.8
			c-1.2-0.8-2.5-1.5-3.7-2.2c-1.2-0.7-2.4-1.5-3.6-2.1c-1.2-0.7-2.4-1.4-3.6-2c-0.6-0.4-1.2-0.7-1.8-1l-1.8-0.9
			c-1.2-0.6-2.4-1.3-3.7-1.8c-1.3-0.6-2.5-1.1-3.8-1.7c-0.6-0.3-1.2-0.6-1.9-0.8l-1.9-0.7c-1.3-0.5-2.5-1-3.8-1.5
			c-1.3-0.5-2.6-0.9-3.9-1.3l-1.9-0.6l-1-0.3l-1-0.3c-10.5-3.1-21.3-4.9-32-5.5c-10.8-0.7-21.6,0.1-32.3,2.1
			c-10.7,1.9-21.2,5.1-31.3,9.6c-1.3,0.3-2.7,0.7-4,1c-1.3,0.4-2.6,0.8-3.9,1.3c-1.3,0.5-2.6,1-3.8,1.5c-1.2,0.6-2.4,1.2-3.6,1.9
			c-0.7,0.4-1.4,0.8-2.1,1.2c-0.7,0.4-1.4,0.9-2.1,1.3c-1.4,0.9-2.8,1.8-4.2,2.7c-2.7,2-5.5,4-8.1,6.3c-2.7,2.2-5.1,4.6-7.6,6.9
			c-1.2,1.2-2.4,2.4-3.5,3.6c-0.6,0.6-1.2,1.2-1.7,1.7c-0.5,0.6-1.1,1.2-1.6,1.8c0.4-2.4-3.7,2.5-4.2,2.1c-1.2,1.1-2.4,2.3-3.6,3.5
			c-0.6,0.6-1.2,1.2-1.8,1.9c-0.6,0.7-1.1,1.3-1.7,2c-1.1,1.4-2.2,2.8-3.2,4.2c-1,1.5-2,3-3,4.6c-3.8,6.3-7.1,13.2-9.9,20.3
			c-0.8,2-0.2,2.3-0.5,4.5c-6.2,8.6-10.7,20.4-12.7,33.4c-0.2,1.6-0.4,3.3-0.6,4.9c-0.1,0.8-0.2,1.7-0.3,2.5c0,0.8-0.1,1.7-0.1,2.5
			c-0.1,1.7-0.2,3.4-0.3,5.1c0,1.7,0,3.4,0,5.1l0,2.6c0,0.9,0.1,1.7,0.1,2.6c0.1,1.7,0.2,3.4,0.3,5.2c0.2,1.7,0.4,3.4,0.6,5.1
			l0.3,2.6c0.1,0.9,0.3,1.7,0.4,2.5c0.2,1.7,0.5,3.5,0.7,5.2c0.3,1.7,0.7,3.4,1,5.2l0.5,2.6l0.7,2.6c0.5,1.7,0.9,3.4,1.5,5.1
			c-0.5-1.7-0.8-3.4-1.3-5.1c-0.2-0.8-0.4-1.7-0.7-2.5c-0.2-0.9-0.4-1.7-0.5-2.6c-0.4-1.7-0.7-3.5-1.1-5.2c-0.3-1.8-0.6-3.5-0.9-5.3
			c-1.9-15.8-0.4-31.4,3.3-46.3c-4,18.3-4.3,36.9-1.2,55c3.1,18.1,9.6,35.7,19.5,51.6c9.4,15.3,20.6,28.9,33.5,40.5
			c13,11.5,27.5,21.2,43.5,28.1c13,5.8,27.3,8.5,41.5,9.3c-1.2-0.5-2.3-1-3.4-1.5c1.1,0.1,2.2,0.2,3.3,0.2c1.1,0.1,2.2,0.2,3.3,0.2
			c2.2,0.1,4.3,0.1,6.5,0.2c4.3,0,8.6,0,13-0.3c8.6-0.5,17.3-1.3,26.1-3c1.6-0.2,3.2-0.7,4.8-1c9.1-1.9,17.7-4.5,25.9-7.9
			c8.2-3.4,16-7.4,23.4-12.1l2.8-1.8c0.9-0.6,1.9-1.2,2.7-1.8c1.8-1.3,3.6-2.6,5.4-3.9c1.7-1.4,3.5-2.8,5.2-4.2
			c1.7-1.4,3.4-2.9,5.1-4.4c6.7-6.1,12.9-12.8,18.8-20.4c5.7-7.4,11.4-15.1,15.7-23.5c1-1.5,1.5-1.9,2-1.7c0.4,0.1,0.7,0.8,1.1,1.3
			c0.7,1,1.7,1.5,4.6-3.8c-0.1,0.7-0.2,1.3-0.2,1.9c-0.6,1-1.2,2-1.8,3c-0.6,1-1.2,1.9-1.8,2.7c-1.2,1.8-2.2,3.4-3.2,4.9
			c-2,2.9-3.4,5.2-3.5,6.7c0.2,2.1,2.9-0.4,6.6-4.6c1.8-2.1,3.7-4.7,5.8-7.4c1.9-2.7,3.9-5.4,5.7-7.8c0.6-0.1,1.2-0.4,1.9-0.8
			c0,0,0.6-1.5,1.4-3.4c0.3-0.3,0.6-0.6,0.9-0.9c0.6,0.7,1.6,0.6,2.8,0.1c-0.9,2.1-1.8,4.2-2.6,6.3c-0.4,1.1-0.9,2.1-1.4,3.1
			l-1.5,3.1c0.9-0.7,1.8-1.5,2.6-2.3c0.9-0.8,1.7-1.7,2.5-2.8c0.8-1,1.6-2.2,2.5-3.4c0.8-1.3,1.8-2.7,2.6-4.3c0,0,0,0,0.1,0.1
			c0.1-0.2,0.1-0.3,0.2-0.5c0.7-1.3,1.4-2.7,2.2-4.2c0,0,0,0,0,0c-1.4,7.7-2.2,11.8-1.8,13.5c0.4,1.7,1.7,1.1,3.6-0.8
			c1-1,2.1-2.2,3.3-3.7c1.1-1.5,2.4-3.2,3.7-4.9c2.7-3.4,5.2-7,7.8-9.5c-0.3,1.4-0.7,3-1.3,4.7c-0.3,0.8-0.5,1.7-0.8,2.6
			c-0.3,0.9-0.7,1.8-1.1,2.7c0.6,0.2,1.8,0.6,1.8,0.6c-3.7,12.5-7.5,22.9-11.7,32.7c-4.2,9.9-8.7,19.3-14.9,29.7
			c-1.7,2.5-2,4.2-2.7,6.1c-0.3,0.9-0.7,2-1.5,3.2c-0.7,1.2-1.8,2.6-3.3,4.2c-8.2,9-17.1,17.3-26.6,24.9
			c-9.6,7.5-19.9,14.1-30.8,19.5c-23.4,11.2-48.1,17.9-72.8,20.3c-12.3,1.2-24.7,1.3-36.9,0.4c-12.2-1-24.3-2.9-36.2-5.9
			c0.3-0.1,0.5-0.2,0.5-0.3c-2.9-0.8-5.7-1.5-8.6-2.3c-2.8-0.9-5.7-1.8-8.5-2.7c-5.6-1.9-11.2-4-16.8-6.5c-1.4-0.6-2.7-1.2-4-1.8
			c-1.3-0.6-2.5-1.3-3.6-2c-2.3-1.3-4.6-2.6-6.8-4.1c-2.2-1.4-4.3-2.9-6.6-4.3c-2.2-1.5-4.5-3.1-7-4.6c-33.7-21.2-60-52.1-75.7-87.3
			C14.4,258.1,9,239.4,6.6,220.4l-0.5-3.6l-0.3-3.6c-0.2-2.4-0.4-4.8-0.6-7.2c-0.2-4.8-0.4-9.6-0.2-14.4l0.1-3.6l0-1.8l0.1-1.8
			l0.5-7.1c0.2-2.4,0.5-4.7,0.8-7.1c0.3-2.4,0.6-4.7,1-7.1c0.5-1.4,1-2.9,1.5-4.4c0.5-1.5,0.9-3,1.5-4.5c1.1-3,2.1-6.1,3.3-9.3
			c-0.6,2.2-0.9,4.5-1.3,6.8c-0.4,2.3-0.8,4.7-1,7.1c4.2-10.8,9-23.4,15.3-36.2c0.4-0.8,0.8-1.6,1.1-2.4c0.4-0.8,0.8-1.6,1.2-2.4
			c0.8-1.6,1.7-3.2,2.5-4.8c0.8-1.6,1.8-3.2,2.7-4.8c0.9-1.6,1.8-3.2,2.8-4.8c3.9-6.3,8-12.7,12.5-18.6c1.1-1.5,2.2-3,3.4-4.5
			c1.2-1.4,2.4-2.9,3.6-4.3l1.8-2.1l1.9-2.1c1.2-1.4,2.5-2.7,3.7-4.1c1.2-1.4,2.6-2.6,3.8-3.9c1.3-1.3,2.5-2.6,3.8-3.8
			c1.3-1.2,2.6-2.4,3.9-3.6c0.7-0.6,1.3-1.2,2-1.8c0.7-0.6,1.3-1.1,2-1.7c10.6-8.8,21.5-15.6,31.2-20.1
			c21.8-10.4,46.1-17.8,71.7-20.2c25.6-2.4,52.3,0.1,77.8,8.3l2.3,0.9c0.8,0.3,1.5,0.7,2.3,1c1.5,0.7,3,1.4,4.5,2.1
			c1.5,0.7,3,1.5,4.5,2.2c1.5,0.8,3,1.5,4.4,2.3c1.5,0.8,2.9,1.7,4.3,2.5c1.4,0.9,2.9,1.6,4.3,2.5c1.4,0.9,2.8,1.8,4.2,2.7l2.1,1.4
			l2,1.5c11,7.7,21.2,16.5,30.3,26.4C317.7,57.1,308.3,48.6,297.7,41z M354,304.6c-0.9,0.8-1.9,1.7-2.7,2.7
			c-0.1,0.4-0.3,0.8-0.5,1.3c1-1,2.1-2,3.1-3c1-1,1.9-2.1,2.9-3.1C355.9,303.1,355,303.8,354,304.6z M339.3,325.5
			c8.5-7.8,16-16.2,21.6-24.5c-0.1-0.1-0.3-0.1-0.5-0.1c-7.4,9.4-15.9,18.1-24.4,25.7c-8.5,7.6-17.1,14.1-24.5,19.7
			C321.1,340.3,330.7,333.3,339.3,325.5z M246.1,387.2c0-0.1,0-0.2,0-0.3c-0.1,0.1-0.3,0.2-0.4,0.3
			C245.8,387.2,246,387.2,246.1,387.2z M24.3,197c-0.1,2-0.2,4-0.4,5.3c-1.6,8-1.3,19.6,1.1,31.9c2.2,12.3,6.4,25.2,10.6,36.9
			c0.8,1.9,1.5,3.8,2.2,5.8l2.3,5.7c0.4,1,0.8,1.9,1.2,2.9l1.3,2.8c0.9,1.9,1.8,3.8,2.8,5.6c4.7,8.5,10.1,16.6,16.2,24.3
			c1.5,1.9,3.1,3.8,4.6,5.8c1.6,1.8,3.3,3.7,4.9,5.6l1.2,1.4l1.3,1.3l2.6,2.7l2.6,2.7l2.8,2.6l2.8,2.6l1.4,1.3l1.4,1.2
			c2,1.6,3.9,3.2,5.9,4.9c2,1.5,4.1,3.1,6.1,4.6l1.6,1.1l1.6,1.1c1.1,0.7,2.1,1.4,3.2,2.2c8.7,5.7,17.9,10.8,27.8,15
			c7.9,3.4,16.5,6.9,25.5,9.5l3.4,1c1.1,0.3,2.3,0.6,3.4,0.9c2.3,0.6,4.5,1.2,6.7,1.8c2.2,0.5,4.5,1,6.7,1.5
			c1.1,0.2,2.2,0.5,3.3,0.7c1.1,0.2,2.2,0.4,3.2,0.6c2.9,0.5,5.8,0.9,8.7,1.1c2.9,0.2,5.8,0.3,8.7,0.4c0.3-0.1,0.6-0.3,0.9-0.5
			c-3.5-0.2-7.1-0.4-10.6-0.7c-3.5-0.4-7-0.8-10.5-1.3c-2.8-0.7-5.6-1.7-8-2.6c-2.4-0.9-4.4-1.8-5.8-2.1c-2.7-0.9-5.7-1.6-8.7-2.6
			c-3-1-6.2-1.8-9.4-3c-3.2-1.1-6.5-2.1-9.7-3.5c-1.6-0.6-3.3-1.3-4.9-2c-1.6-0.6-3.2-1.5-4.8-2.2c-2.5-1.4-5.2-2.6-8-4.1
			c-2.8-1.4-5.8-2.8-8.7-4.4c-1.5-0.8-3-1.6-4.5-2.4c-1.5-0.8-3-1.7-4.5-2.6c-1.5-0.9-3-1.8-4.5-2.8c-1.4-1-2.9-2-4.3-3.1
			c-1.2-0.8-2.2-1.8-2.8-2.7c-0.6-0.9-0.9-1.7-0.7-2c-2-1.3-4-2.7-5.7-4c-1.8-1.3-3.3-2.8-4.9-4.1c-3.1-2.7-5.7-5.6-8.3-8.4
			c-1.3-1.4-2.5-2.9-3.8-4.4c-1.2-1.5-2.6-3-3.8-4.5c-2.6-3.2-5.4-6.4-8.6-10.1c2.1,1.9,4.1,3.8,6.3,5.5c-0.9-1.1-1.7-2.1-2.5-3.2
			c-0.8-1.1-1.5-2.1-2.2-3.2c-0.7-1-1.4-2.1-2.1-3.1c-0.7-1-1.3-2.1-2-3.2c-2.7-4.3-5.5-9.1-8.8-15c-1.4-2.3-2.6-4.6-3.6-6.8
			c-1-2.2-1.8-4.4-2.5-6.4c-0.8-2.1-1.3-4.1-2.1-6.1c-0.7-1.9-1.4-3.8-2.2-5.7c-4.8-12.5-8.5-25.4-10.5-37.9
			c-2-12.5-2.3-24.5-0.8-35C24.8,193,24.4,195,24.3,197z M49.9,166.3c-0.7,0.9-1.3,2.3-1.9,4.1c-0.6,1.8-1,4-1.5,6.6
			c-0.1,0.6-0.2,1.3-0.4,2c-0.1,0.7-0.2,1.4-0.2,2.1c-0.1,1.4-0.3,3-0.5,4.5c-0.2,1.6-0.2,3.2-0.2,5c0,1.7-0.1,3.5-0.1,5.3
			c0.1,7.3,0.9,15.4,2.4,23.7c1.5,8.3,3.8,16.7,6.5,24.8c2.7,8.1,6,15.8,9.3,22.8c6.5,14,13.1,25,14.5,31.8c3,0.7,3.1-1.7,1.6-5.7
			c-0.8-2-1.8-4.5-3.2-7.3c-0.3-0.7-0.7-1.4-1.1-2.1c-0.4-0.7-0.7-1.5-1.1-2.3c-0.7-1.5-1.5-3.1-2.3-4.8c-3.1-6.6-6.4-14-9-20.8
			c-2.6-6.9-4.7-13.2-6.1-17.6c-3.7-10.7-6.1-22.9-6.6-35.3c-0.4-12.4,1.1-25,4.1-36.5C52.5,164.4,51.2,164.5,49.9,166.3z
			 M149.7,56.7c9.2-3.9,17.6-5.6,26.2-6.5C167,51.5,158.2,53.7,149.7,56.7z M79.5,79.3c-1,1.1-1.9,2.3-2.8,3.5
			c-0.9,1.2-1.9,2.4-2.7,3.6c-0.8,1.2-1.6,2.3-2.3,3.3c2.8-3.2,5.9-5.9,8.9-8.6c3.1-2.6,6.1-5.1,9.3-7.3l2.4-1.7l1.2-0.9l1.2-0.8
			c1.6-1.1,3.3-2.2,4.9-3.2c1.7-1.1,3.4-2.1,5.1-3.1c0.9-0.5,1.7-1.1,2.6-1.6c0.9-0.5,1.8-1,2.7-1.5c5.8-3.3,12-6.2,18.2-9.1
			c3.2-1.3,6.3-2.8,9.6-4c1.6-0.6,3.2-1.3,4.9-1.9c1.7-0.6,3.3-1.2,5-1.7c6.7-2.2,13.5-4.2,20.5-5.6l2.6-0.6
			c0.9-0.2,1.7-0.3,2.6-0.5l5.2-0.9c1.8-0.2,3.5-0.4,5.3-0.6l2.6-0.3l2.6-0.2c2.5,0,4.9,0,7.4,0.2c5.3,0.1,9.8,0,14.1-0.2
			c0.7,0.1,1.3,0.1,2,0.2c-0.4-0.1-0.8-0.1-1.1-0.2c1.6-0.1,3.3-0.1,4.9-0.2c0.8-0.1,1.7-0.1,2.5-0.1c0.8,0,1.7,0,2.5,0
			c0.9,0,1.7,0,2.6,0c0.9,0,1.8,0,2.7,0.1c1.8,0.1,3.7,0.3,5.7,0.5c0.7,0.3,1.4,0.6,2.1,1l0.3-1.8c-9.7-3.9-21.4-5.3-33.2-4.9
			c-11.9,0.4-23.8,2.5-35.2,4.5c-3.7,0.6-7.4,1.5-11.2,2.4c-1.9,0.5-3.7,1.1-5.6,1.6c-0.9,0.3-1.9,0.5-2.8,0.9l-2.8,1l-2.8,1
			l-1.4,0.5l-1.4,0.6c-1.8,0.8-3.7,1.5-5.5,2.3c-1.8,0.8-3.6,1.7-5.4,2.5c-0.9,0.4-1.8,0.8-2.7,1.3l-2.6,1.4
			c-3.6,1.8-7,3.9-10.5,5.9c-3.4,2.2-6.8,4.2-10.1,6.5c-3.4,2.2-6.5,4.7-9.8,7c-3.1,2.5-6.3,4.9-9.3,7.5
			C81.4,77.3,80.5,78.2,79.5,79.3z"/>
		<path class="st2" d="M288.3,40.8c8.9,5.7,17.3,12.3,25.1,19.6c3,2.8,5.7,6,8.4,9c2.6,3.2,5.2,6.3,7.5,9.6
			c5.8,7.6,11.4,15.9,16.4,24.7c5,8.8,9.5,18.1,13.1,27.9c7.2,19.5,10.8,40.7,9.7,60.8c-0.9,0.6-1.8,0.9-2.8,0.9
			c-0.9,0-1.8-0.4-2.8-1.1c-0.7-21.1-4.4-41.9-12-61.5c-7.6-19.6-19.3-37.9-34.7-52.3c-0.2-0.3-0.4-0.6-0.6-0.8
			c-5.2-7.6-14.1-16-24.6-23c-10.5-7.1-22.3-13.2-32.9-18.3c-10.5-5.4-22-9.2-33.8-11.6c-11.8-2.4-24-3.5-36.3-3.7
			c4.4-0.6,8.8-0.7,13.2-0.9c4.4,0,8.7-0.1,13.1,0.3c4.3,0.1,8.6,0.8,12.9,1.2c4.3,0.7,8.5,1.3,12.7,2.2c4.2,0.8,8.3,2,12.5,3
			c4.1,1.3,8.2,2.4,12.2,4c4.1,1.4,8,3.1,12,4.7c2,0.9,3.9,1.8,5.9,2.7c1,0.4,2,0.9,2.9,1.4L288.3,40.8z"/>
		<path class="st2" d="M22.4,114c4.6-10.3,10.1-20.2,16.5-29.6c1.1-1.7,2.3-3.2,3.5-4.8c1.2-1.6,2.3-3.1,3.5-4.6
			c1.2-1.5,2.4-2.9,3.7-4.4c0.6-0.7,1.2-1.4,1.8-2.2c0.6-0.7,1.3-1.4,1.9-2.1c2.5-2.7,5-5.5,7.7-8c1.3-1.3,2.6-2.5,3.9-3.8
			c1.4-1.2,2.7-2.4,4.1-3.6c10.8-9.4,22.4-17.4,34.7-23.8C86.2,37.9,70.3,51.5,57.2,67.6c-6.8,7.8-13.1,15.2-18.9,22.8
			C32.6,97.9,27.1,105.5,22.4,114z"/>
		<path class="st2" d="M124.1,18c-1.8,0.7-3.6,1.3-5.3,2.1c-1.7,0.8-3.4,1.5-5.2,2.3l-2.6,1.1l-2.5,1.2c-1.7,0.8-3.3,1.7-5,2.5
			c12.9-7.9,26.7-14.2,41-18.7c14.3-4.5,29.1-7.3,43.9-8.3c24.4-1,48.7,2.6,71.3,10.5c22.6,7.9,43.4,20.4,60.6,36.2
			c1.9,1.8,3.9,3.6,5.8,5.4c1.9,1.9,3.7,3.7,5.6,5.6c-15.8-14.8-34.3-26.6-54-34.9c-9.8-4.1-20-7.5-30.3-9.9
			c-10.3-2.4-20.7-3.9-31-4.7c-2.6-0.1-5.2-0.4-7.8-0.4c-2.6,0-5.2-0.1-7.7-0.1c-2.6,0.1-5.1,0.2-7.7,0.2c-1.3,0-2.6,0.1-3.8,0.2
			l-3.8,0.3c-10.2,0.9-20.2,2.5-30,4.7c-9.7,2.3-19.2,5.3-28.3,8.8c-1.1,0.4-2.3,0.9-3.4,1.3c-1.1,0.4-2.3,0.9-3.4,1.4
			c-2.2,1-4.5,2-6.7,2.9c-4.3,2.1-8.7,4.2-12.9,6.5c-1.2,0.7-2.6,1.4-3.9,2.1c7.5-5.1,15.2-9.8,23.3-13.8
			c8.1-3.9,16.4-7.4,24.9-10.1c2.1-0.7,4.3-1.3,6.4-1.9l3.2-0.9l3.3-0.8c2.2-0.5,4.3-1.1,6.5-1.5l6.6-1.2l1.6-0.3l1.7-0.2l3.3-0.4
			c2.2-0.3,4.4-0.6,6.6-0.7l6.6-0.5l6.6-0.2C172.9,3.6,147.7,8.5,124.1,18z"/>
		<path class="st2" d="M279.5,35.5c1.1,0.5,2.2,1,3.2,1.5c0.5,0.3,1.1,0.5,1.6,0.8l1.6,0.8c1.2,0.7,2.3,1.5,3.5,2.2
			c1.1,0.7,2.3,1.5,3.4,2.3c-1.4-0.8-2.9-1.5-4.4-2.3c-1.5-0.9-2.9-1.8-4.4-2.8C282.5,37.2,281,36.3,279.5,35.5z"/>
		<path class="st2" d="M211.2,35.3c-0.3,0-0.6,0-0.8,0c-7-0.4-14.3-0.6-21.5,0c-10.1,0-20.7,1.3-31.3,4c9.5-2.7,19.2-4.5,28.3-5.2
			C195.1,33.5,203.8,34,211.2,35.3z"/>
		<path class="st2" d="M156.1,59.5c-1,0.3-2.3,1-3.7,1.5c-1.4,0.6-2.8,1.2-3.7,1.6c-1.3,0.2-2.5,0.4-3.8,0.6
			c1.7-0.8,3.4-1.8,5.2-2.5C152.1,60.3,154.1,59.8,156.1,59.5z"/>
		<path class="st2" d="M65.9,138.5c7.7-17.6,18.5-32.8,31.1-45.3c6.3-6.2,13.2-11.8,20.3-16.7c7.2-4.8,14.7-9,22.5-12.4
			c0.8-0.2,1.6-0.4,2.5-0.6l2.5-0.4c-2.5,1.2-4.9,2.7-7.4,4c-1.3,0.6-2.4,1.4-3.6,2.1c-1.2,0.7-2.4,1.4-3.6,2.2
			c-1.2,0.8-2.3,1.5-3.5,2.3l-1.8,1.1l-1.7,1.2c-1.1,0.8-2.3,1.6-3.4,2.4c-1.1,0.8-2.2,1.7-3.3,2.5c-8.9,6.6-17.2,13.6-24.9,21
			c-3,2.9-8.2,7.1-10.4,10.7c-11,16.8-19.5,34.4-24.3,53.6c2-9.2,4.8-18.3,8.7-27.1C65.7,139,65.8,138.8,65.9,138.5z"/>
	</g>
	<g>
		<path class="st3" d="M14.7,196.7c0.1-0.5,0.2-1.2,0.4-2.1c0.5-2.7,0.7-4.6,0.8-5.5c0.1-1.4,0.3-3.8,0.4-7.3c0-0.6,0-1,0.1-1.3
			l2.6,0.3c0,0.1,0,0.2-0.1,0.4c0,0.1,0,0.3-0.1,0.6c-0.1,1.2,0.1,2,0.7,2.5c0.6,0.5,1.9,0.8,3.9,1c0.3,0,1,0.1,1.9,0.2
			c0.9,0.1,1.7,0.2,2.3,0.2l13.6,1.4c0.1-0.6,0.3-1.4,0.4-2.2c0.1-0.8,0.2-1.9,0.4-3.2c0.2-2.4,0-4.2-0.6-5.3c-0.7-1.1-2-2.2-4-3.1
			l1.1-2.7c1.5,0.7,2.9,1.2,4.4,1.8c1.4,0.5,2.8,1,4.2,1.4c-0.6,4.4-1.1,7.7-1.3,9.8c-0.3,2.1-0.5,3.9-0.6,5.4
			c-0.1,1.4-0.3,2.9-0.4,4.6c-0.1,1.7-0.2,4-0.4,6.7l-2.6-0.3l0.1-0.8c0.1-1,0.1-1.7-0.1-2.2c-0.2-0.5-0.5-0.8-1-1.1
			c-0.4-0.2-1.2-0.4-2.3-0.6c-1.1-0.2-3.7-0.5-7.6-0.9l-2.7-0.3c-0.7-0.1-1.5-0.2-2.5-0.3s-1.7-0.2-2.1-0.2
			c-2.5-0.3-4.1-0.2-4.9,0.1c-0.8,0.3-1.2,1-1.3,2.2c0,0.3,0,0.5,0,0.6s0,0.3,0,0.4L14.7,196.7z"/>
		<path class="st3" d="M23.2,145.9l2.4-7.3c5.5-0.2,10.6-0.4,15.3-0.7s8.5-0.5,11.3-0.7c1.3-0.1,2.2-0.3,2.7-0.7s0.9-1.2,1.3-2.3
			l0.1-0.2l2.4,0.8c-0.7,1.6-1.3,3.1-1.8,4.4c-0.5,1.4-0.9,2.5-1.3,3.5s-0.7,2.2-1.1,3.6c-0.4,1.4-0.8,2.9-1.2,4.6l-2.5-0.8l0.1-0.3
			c0.4-1.1,0.5-2,0.4-2.6c-0.1-0.6-0.5-0.9-1.2-1.2c-0.2-0.1-0.5-0.1-0.8-0.1s-0.7,0-1.1,0l-3.1,0.2c-0.2,0.7-0.5,1.5-0.8,2.3
			c-0.3,0.8-0.7,2.1-1.2,3.7c-0.2,0.6-0.4,1.3-0.6,2c-0.2,0.7-0.5,1.5-0.7,2.2c0.1,0.1,0.3,0.3,0.5,0.4c1.6,1.5,2.7,2.3,3.3,2.5
			c0.7,0.2,1.3,0.2,1.8-0.2c0.5-0.4,0.9-1.1,1.3-2.3l2.5,0.8c-0.8,2-1.4,3.4-1.7,4.2c-0.3,0.8-0.5,1.4-0.7,1.9
			c-0.2,0.6-0.4,1.3-0.6,2.2c-0.2,0.9-0.6,2.2-1,4.2l-2.5-0.8c0.7-2.1,0.1-3.9-1.6-5.6c-0.3-0.2-0.5-0.4-0.6-0.6
			c-3.1-3-6.2-5.9-9.4-8.7C29.9,151.6,26.6,148.7,23.2,145.9z M30.2,146.6l8.2,7c0.2-0.4,0.4-1,0.6-1.7c0.2-0.7,0.4-1.1,0.4-1.3
			c0.2-0.7,0.6-1.9,1.1-3.6c0.1-0.3,0.2-0.6,0.2-0.7L30.2,146.6z"/>
		<path class="st3" d="M59.7,109.1l-6.2-9.2c-0.1-0.2-0.3-0.4-0.5-0.8c-1.8-2.7-3.3-4.4-4.3-5.1c1.1-1.5,1.9-2.6,2.5-3.4
			c0.6-0.8,1.1-1.5,1.4-2c0.4-0.6,0.8-1.3,1.3-2.2c0.5-0.9,1.2-2.2,2.1-3.9l2.2,1.4c-0.9,1.4-1.3,2.4-1.2,3c0.1,0.6,0.5,1.2,1.4,1.7
			c0.2,0.1,0.9,0.5,2,1.1s2.4,1.3,3.7,2l3.3,1.7c0.8,0.4,1.8,1,3.1,1.7c3.6,1.9,5.9,2.9,6.6,3c0.4,0,0.8-0.1,1.2-0.3
			c0.4-0.2,0.7-0.7,1.1-1.2c0-0.1,0.1-0.2,0.2-0.3c0.1-0.1,0.1-0.2,0.2-0.3l2.2,1.4c-1,1.4-2,2.6-2.8,3.8c-0.8,1.2-1.5,2.2-2.1,3.1
			c-0.5,0.8-1.1,1.8-1.7,2.9c-0.7,1.2-1.4,2.5-2.2,4l-2.2-1.4l0.3-0.5c0.7-1.1,1.1-2,1-2.7s-0.6-1.2-1.5-1.8c-0.4-0.3-0.8-0.5-1-0.6
			c-0.2-0.1-0.4-0.2-0.6-0.3L56.5,97l9.9,14.7c0.9,1.3,1.6,2.3,2.2,3c0.5,0.7,1,1.2,1.4,1.6l-2,3.2c-0.6-0.2-1.3-0.5-2-0.7
			c-0.7-0.2-1.8-0.5-3.1-0.7l-18-3.7c3.5,2.8,6.4,5.1,8.8,6.9c2.3,1.8,3.9,2.9,4.6,3.4c0.9,0.6,1.7,0.8,2.3,0.6s1.2-0.8,1.9-1.9
			l0.1-0.2l2.2,1.4c-1.2,1.5-2,2.6-2.5,3.4c-0.5,0.7-1,1.4-1.3,1.9c-0.4,0.6-1.2,2.1-2.5,4.6l-0.3,0.7l-2.2-1.4
			c0-0.1,0.1-0.2,0.2-0.3c0.1-0.1,0.2-0.2,0.2-0.3c0.5-0.7,0.7-1.4,0.7-1.9s-0.2-1-0.7-1.6c-0.3-0.4-1.7-1.6-4.3-3.7
			c-1.2-1-2.1-1.7-2.8-2.3l-3.8-3.1c-1.4-1.1-2.5-2-3.3-2.7c-0.8-0.7-1.4-1.1-1.8-1.3c-0.8-0.5-1.4-0.6-1.9-0.5
			c-0.5,0.2-1.1,0.7-1.6,1.6c0,0.1-0.1,0.2-0.2,0.3c-0.1,0.2-0.2,0.3-0.2,0.4l-2.1-1.3c0.8-1,1.5-2,2.1-2.9c0.6-0.9,1.2-1.7,1.6-2.4
			c0.5-0.7,1-1.6,1.5-2.6c0.5-1,1.2-2.4,2.1-4l0.2,0.1c0.8,0.5,3.7,1.2,8.6,2.2C54.2,107.9,57.3,108.5,59.7,109.1z"/>
		<path class="st3" d="M81.6,95.1c0.1-0.1,0.2-0.2,0.3-0.3c0.1-0.1,0.3-0.2,0.5-0.4c0.9-0.8,1.2-1.6,1-2.4c-0.2-0.8-1.3-2.3-3.5-4.5
			l-0.7-0.7l-1.5-1.6l-2.9-3.1L70,77.3c-1-1.1-1.9-1.7-2.6-1.7c-0.7-0.1-1.5,0.3-2.3,1.1c-0.1,0-0.1,0.1-0.3,0.3
			c-0.1,0.1-0.2,0.2-0.3,0.3l-1.8-1.9c1.3-1,2.4-2,3.3-2.7c0.9-0.8,1.7-1.4,2.3-2.1c1-1,2.2-2.3,3.7-4c1.5-1.7,2.5-2.9,3.2-3.5
			c2.5-2.4,4.8-3.8,7.2-4.3c2.3-0.5,4.2,0.1,5.7,1.6c1.1,1.2,1.7,2.6,1.7,4.3c0,1.7-0.5,3.6-1.7,5.6c2.3-1.8,4.4-2.7,6.3-2.8
			c1.9-0.1,3.6,0.6,5.1,2.2c1.8,1.9,2.3,4.2,1.5,7.1c-0.8,2.9-2.8,5.9-5.9,9c-0.5,0.5-1.6,1.4-3.3,2.8c-1.7,1.4-3,2.5-4,3.5
			c-0.3,0.3-0.9,0.9-1.9,2c-1,1.1-1.8,2-2.5,2.7L81.6,95.1z M80.3,75.9l1-0.9c0.6-0.5,1.4-1.4,2.6-2.7l0.2-0.2c0.2-1,0.2-1.9,0-2.7
			c-0.2-0.8-0.6-1.6-1.2-2.2c-1-1-2.1-1.5-3.3-1.4c-1.2,0.1-2.4,0.7-3.6,1.8c-0.2,0.2-0.5,0.5-1,1.1c-0.3,0.4-0.5,0.7-0.7,0.9
			l2.5,2.6l1,1c0.3,0.3,0.7,0.7,1.3,1.3C79.7,75.2,80.1,75.7,80.3,75.9z M89.3,85.2c0.5-0.2,1-0.5,1.5-0.9s0.9-0.7,1.4-1.2
			c1.2-1.2,1.9-2.4,2-3.8c0.1-1.3-0.4-2.5-1.4-3.6c-1.1-1.1-2.4-1.6-3.8-1.5c-1.4,0.1-2.8,0.9-4.3,2.3c-0.4,0.4-1,1-1.7,1.8
			c-0.1,0.1-0.1,0.2-0.2,0.2c1.1,1.1,2.2,2.3,3.4,3.5c0.3,0.3,0.5,0.5,0.5,0.5L89.3,85.2z"/>
		<path class="st3" d="M107.6,73.5l-1.4-2.2c0.1-0.1,0.3-0.2,0.5-0.3c0.2-0.1,0.3-0.2,0.4-0.2c0.7-0.4,1.2-0.9,1.5-1.3
			c0.2-0.4,0.3-0.9,0.2-1.5c-0.1-0.7-1.3-2.9-3.5-6.6c-0.4-0.7-0.7-1.2-1-1.6l-4.1-6.8l-0.3-0.5c-1.3-2.2-2.3-3.4-3-3.7
			c-0.7-0.3-1.5-0.1-2.5,0.5c-0.2,0.1-0.5,0.3-0.9,0.6c0,0-0.1,0-0.1,0.1l-1.3-2.2c1.9-0.9,3.2-1.6,4.1-2.1c0.9-0.5,1.6-0.9,2.2-1.2
			c1.3-0.8,2.9-1.9,4.9-3.3s3.3-2.3,4.1-2.8c4.8-2.9,9.2-4,13.4-3.4c4.2,0.6,7.4,2.9,9.8,6.9c2.4,3.9,2.8,8,1.3,12.1
			c-1.5,4.2-4.8,7.8-9.8,10.8c-0.9,0.5-2.2,1.2-4,2.1c-1.8,0.9-3.2,1.6-4.1,2.2c-0.7,0.4-1.6,1-2.6,1.7
			C110.3,71.6,109,72.4,107.6,73.5z M116.3,62.7c0.8-0.3,1.4-0.6,2.1-0.8s1.2-0.6,1.6-0.9c2.6-1.6,4.2-3.6,4.7-5.9
			c0.5-2.4-0.2-5-1.9-7.8c-1.8-3-4-4.9-6.6-5.7c-2.6-0.8-5.2-0.4-7.9,1.3c-0.4,0.3-0.9,0.5-1.3,0.9c-0.5,0.3-0.9,0.7-1.5,1.1
			c0.9,1.6,1.9,3.3,3,5c1,1.7,2.4,4.1,4.2,7c0.6,1,1.3,2.1,2.1,3.4C115.6,61.6,116.1,62.4,116.3,62.7z"/>
		<path class="st3" d="M143.2,21.2l7.3-2.4c3.4,4.3,6.6,8.2,9.7,11.9s5.5,6.5,7.3,8.6c0.9,1,1.6,1.6,2.2,1.8c0.6,0.1,1.5,0,2.6-0.3
			l0.2-0.1l0.8,2.5c-1.7,0.4-3.2,0.8-4.6,1.2c-1.4,0.4-2.6,0.8-3.6,1.1c-1,0.3-2.2,0.8-3.5,1.3c-1.4,0.5-2.8,1.1-4.4,1.8l-0.8-2.4
			l0.3-0.1c1.1-0.4,1.9-0.8,2.3-1.2c0.4-0.4,0.4-1,0.2-1.7c-0.1-0.2-0.2-0.4-0.4-0.7s-0.4-0.6-0.7-0.9l-2-2.4
			c-0.7,0.2-1.5,0.5-2.3,0.7s-2.1,0.7-3.7,1.2c-0.6,0.2-1.3,0.4-2,0.7c-0.7,0.2-1.4,0.5-2.2,0.8c0,0.2,0,0.4-0.1,0.6
			c-0.2,2.2-0.2,3.6,0,4.2c0.2,0.7,0.6,1.2,1.2,1.3c0.6,0.2,1.4,0.1,2.6-0.3l0.8,2.4c-2.1,0.5-3.6,0.9-4.4,1.1
			c-0.8,0.2-1.5,0.4-2,0.6c-0.6,0.2-1.3,0.5-2.1,0.8s-2.1,0.9-4,1.7l-0.8-2.4c2.1-0.7,3.2-2.2,3.5-4.7c0-0.4,0.1-0.6,0.1-0.8
			c0.5-4.2,1-8.5,1.4-12.8C142.6,29.9,142.9,25.6,143.2,21.2z M146.8,27.1L146.1,38c0.4-0.1,1-0.3,1.7-0.5s1.1-0.3,1.3-0.4
			c0.7-0.2,1.9-0.6,3.5-1.2c0.3-0.1,0.6-0.2,0.7-0.3L146.8,27.1z"/>
		<path class="st3" d="M215.5,10.7c1.9,0.3,3.5,0.6,4.9,0.7c1.4,0.2,2.6,0.3,3.7,0.4c0.8,0.1,1.8,0.1,3.1,0.2c1.3,0,3,0.1,5,0.1
			l-0.2,2.6l-0.5,0c-1-0.1-1.7,0-2.1,0.1s-0.8,0.5-1,1c-0.2,0.5-0.5,1.8-0.7,4s-0.6,5.4-1,9.7c-0.1,0.8-0.2,2.1-0.3,3.7
			c-0.1,1.7-0.2,3-0.3,3.8c-0.3,2.9-0.7,5.2-1.3,6.9c-0.6,1.6-1.6,3.1-2.8,4.3c-1.4,1.3-3.1,2.3-5.1,3c-2,0.7-4.1,0.9-6.2,0.7
			c-2-0.2-3.4-0.7-4.4-1.5c-1-0.8-1.4-1.9-1.3-3.2c0.1-0.9,0.5-1.7,1.1-2.3c0.7-0.6,1.5-0.9,2.3-0.8c0.9,0.1,1.8,0.7,2.8,1.8
			c1,1.1,1.8,1.7,2.4,1.8c1.1,0.1,1.9-0.4,2.5-1.4c0.5-1,1-3.6,1.3-7.6l1.8-21.1c0.1-1.5,0-2.6-0.4-3.2c-0.4-0.6-1.3-0.9-2.5-1
			c-0.1,0-0.2,0-0.4,0c-0.2,0-0.4,0-0.5,0L215.5,10.7z"/>
		<path class="st3" d="M241.9,13.7c1.8,0.6,3.4,1,4.7,1.4c1.4,0.4,2.6,0.7,3.6,0.9c0.8,0.2,1.8,0.4,3.1,0.6c1.3,0.2,2.9,0.5,5,0.8
			l-0.6,2.5l-0.5-0.1c-1-0.2-1.7-0.3-2.1-0.2c-0.5,0.1-0.8,0.4-1.1,0.9c-0.3,0.4-0.6,1.3-1,2.7c-0.4,1.4-0.9,3.6-1.6,6.6l-0.6,2.5
			c-0.2,0.8-0.4,1.7-0.7,2.9c-0.3,1.2-0.5,2-0.6,2.4c-0.3,1.4-0.5,2.4-0.6,3.1c-0.1,0.7-0.1,1.2,0.1,1.6c0.1,0.4,0.4,0.7,0.8,1
			c0.4,0.3,1.2,0.5,2.1,0.7l0.6,0.1l-0.6,2.5c-1.6-0.5-3.2-1-4.7-1.4c-1.5-0.4-2.8-0.7-3.9-1c-0.8-0.2-1.9-0.4-3.3-0.7
			c-1.3-0.2-3.1-0.5-5.2-0.8l0.6-2.5l0.7,0.2c1,0.2,1.8,0.3,2.3,0.3c0.5,0,0.9-0.2,1.1-0.5c0.5-0.7,1.4-3.4,2.5-8.3
			c0.1-0.6,0.2-1.1,0.3-1.4l0.6-2.5c0.2-0.7,0.4-1.5,0.6-2.6c0.3-1.1,0.4-1.8,0.5-2.3c0.3-1.5,0.6-2.6,0.6-3.4
			c0.1-0.7,0.1-1.3-0.1-1.7s-0.4-0.8-0.8-1c-0.4-0.3-1-0.5-1.8-0.7l-0.7-0.2L241.9,13.7z"/>
		<path class="st3" d="M282.9,26.2l-1.1,2.4c-0.1,0-0.2-0.1-0.4-0.2c-0.2-0.1-0.3-0.1-0.3-0.2c-1.2-0.5-2.1-0.6-2.8-0.2
			c-0.7,0.4-1.4,1.6-2.3,3.5c-0.6,1.4-1.3,2.9-1.9,4.5c-0.7,1.6-1.1,2.5-1.1,2.6c-1.5,3.3-2,6-1.5,8c0.5,2,2,3.5,4.5,4.6
			c1.6,0.7,3,1,4.4,0.9c1.4-0.1,2.5-0.6,3.4-1.6c0.6-0.5,1.2-1.5,1.9-2.8c0.7-1.3,1.9-3.9,3.5-7.6l1.5-3.3c0.6-1.4,0.8-2.5,0.6-3.2
			c-0.2-0.7-0.9-1.3-2.1-1.8l-0.6-0.3l1.1-2.4c1.2,0.7,2.3,1.3,3.2,1.7c0.9,0.5,1.7,0.8,2.3,1.1c0.7,0.3,1.6,0.7,2.6,1
			s2.1,0.7,3.4,1.1l-1.1,2.4c-0.1-0.1-0.2-0.1-0.3-0.2c-0.1-0.1-0.2-0.1-0.4-0.2c-1.8-0.8-3.7,1-5.6,5.5c-0.2,0.6-0.4,1-0.6,1.3
			c-0.2,0.3-0.4,0.8-0.7,1.5c-2.2,5-4.1,8.2-5.5,9.6c-1.7,1.6-3.8,2.5-6.5,2.7s-5.4-0.3-8.2-1.6c-2.2-1-4.1-2.1-5.5-3.3
			c-1.5-1.2-2.5-2.6-3.2-4.1c-0.7-1.6-1.1-3.3-1-4.9c0.1-1.6,0.7-3.6,1.8-6.1c0.4-0.9,1.1-2.4,2-4.3c0.9-1.9,1.6-3.4,2-4.4
			c0.9-2.1,1.3-3.5,1.2-4.2c-0.2-0.7-0.8-1.3-1.8-1.8c-0.1,0-0.2-0.1-0.4-0.1c-0.2-0.1-0.3-0.1-0.4-0.1l1.1-2.4
			c1.3,0.8,2.6,1.4,3.8,2s2.3,1.1,3.3,1.5c0.8,0.4,1.8,0.8,3.1,1.3C279.4,24.9,281,25.5,282.9,26.2z"/>
		<path class="st3" d="M326.4,52.1c1.3,1.3,2.5,2.5,3.5,3.5s1.9,1.8,2.7,2.5c0.6,0.5,1.4,1.2,2.4,2c1,0.8,2.3,1.8,4,3l-1.7,1.9
			l-0.4-0.4c-0.8-0.7-1.4-1-1.8-1.2c-0.5-0.1-0.9,0-1.4,0.3c-0.5,0.3-1.5,1.2-2.9,2.8c-1.5,1.6-3.6,4-6.5,7.3
			c-0.5,0.6-1.3,1.6-2.4,2.9c-1.1,1.3-1.9,2.3-2.5,2.9c-1.9,2.2-3.6,3.8-5.1,4.8c-1.5,1-3.1,1.6-4.8,1.8c-1.9,0.3-3.9,0.1-5.9-0.6
			c-2-0.7-3.9-1.7-5.5-3.1c-1.5-1.3-2.4-2.6-2.7-3.8s-0.1-2.4,0.8-3.4c0.6-0.7,1.4-1.1,2.3-1.2c0.9-0.1,1.7,0.1,2.4,0.7
			c0.7,0.6,1.1,1.6,1.2,3.1c0.1,1.5,0.4,2.4,0.9,2.9c0.8,0.7,1.8,0.8,2.8,0.3c1-0.5,2.9-2.3,5.5-5.4l13.8-16c1-1.2,1.5-2.1,1.5-2.8
			c0-0.7-0.5-1.5-1.4-2.3c-0.1-0.1-0.2-0.1-0.3-0.3c-0.2-0.1-0.3-0.2-0.4-0.3L326.4,52.1z"/>
		<path class="st3" d="M346,70c1.1,1.5,2.1,2.8,3,3.9c0.9,1.1,1.7,2.1,2.4,2.9c0.5,0.6,1.2,1.4,2.1,2.3s2.1,2.1,3.5,3.6l-1.9,1.7
			l-0.4-0.4c-0.7-0.7-1.2-1.2-1.6-1.4s-0.9-0.2-1.4,0.1c-0.5,0.2-1.3,0.7-2.4,1.6c-1.1,0.9-2.9,2.4-5.2,4.4l-1.9,1.7
			c-0.6,0.5-1.3,1.2-2.2,1.9s-1.5,1.3-1.9,1.6c-1.1,0.9-1.8,1.6-2.3,2.2c-0.5,0.5-0.8,1-0.9,1.3c-0.1,0.4-0.1,0.8,0.1,1.3
			c0.2,0.5,0.6,1.1,1.3,1.8l0.4,0.4l-1.9,1.7c-1-1.4-2-2.7-3-3.9c-1-1.2-1.8-2.2-2.6-3.1c-0.6-0.7-1.3-1.5-2.3-2.4
			c-0.9-1-2.2-2.2-3.7-3.7l1.9-1.7l0.5,0.5c0.7,0.8,1.2,1.3,1.7,1.6c0.4,0.3,0.8,0.3,1.2,0.2c0.8-0.2,3.1-2,6.9-5.2
			c0.5-0.4,0.8-0.7,1.1-1l1.9-1.7c0.5-0.5,1.2-1,2.1-1.8s1.4-1.2,1.8-1.5c1.2-1,2-1.8,2.5-2.4c0.5-0.6,0.8-1,1-1.4
			c0.1-0.4,0.1-0.8,0-1.3c-0.2-0.4-0.5-1-1.1-1.6l-0.5-0.6L346,70z"/>
		<path class="st3" d="M343.7,110.6c0.1,0.1,0.2,0.3,0.3,0.5c0.1,0.2,0.2,0.3,0.2,0.4c0.5,0.8,1,1.4,1.4,1.6c0.4,0.2,1,0.2,1.8,0
			c0.4-0.1,1.2-0.5,2.5-1.3c1.3-0.7,3.4-2,6.4-3.8l9.2-5.6c-0.2-0.4-0.4-0.8-0.7-1.1c-0.2-0.4-0.5-0.8-0.8-1.3
			c-1.3-2.1-2.4-3.4-3.4-3.7c-1-0.4-2.4-0.2-4.2,0.5l-1-2.9c1.3-0.4,2.6-0.9,4-1.4s2.8-1.2,4.2-1.9c1.1,2.1,2.1,4,3.2,5.9
			c1.1,1.9,2.2,3.8,3.3,5.6c2.5,4.2,4.6,7.5,6.1,9.9s2.7,4.1,3.5,5.1c-1.3,0.8-2.5,1.6-3.7,2.5c-1.2,0.9-2.4,1.8-3.5,2.7l-1.9-2.1
			c1.5-1.3,2.3-2.4,2.5-3.4c0.2-1-0.3-2.3-1.4-4.2c-0.2-0.3-0.4-0.7-0.7-1.1c-0.3-0.5-0.7-1-1.1-1.6c-2.5,1.5-4.5,2.7-5.9,3.5
			c-1.4,0.8-2.7,1.6-3.9,2.4l-2.2,1.3c-2.1,1.3-3.6,2.2-4.4,2.8c-0.8,0.6-1.4,1-1.6,1.3c-0.4,0.5-0.5,0.9-0.5,1.5s0.3,1.1,0.7,1.9
			c0.1,0.1,0.1,0.2,0.3,0.4c0.1,0.2,0.2,0.3,0.3,0.4l-2.2,1.3c-0.8-1.6-1.6-3.1-2.3-4.4c-0.7-1.3-1.4-2.5-2-3.5
			c-0.4-0.7-1-1.7-1.8-2.8c-0.8-1.1-1.7-2.5-2.8-4L343.7,110.6z"/>
		<path class="st3" d="M390.8,149.8l-1.2,0.4c-1.1,0.4-2.2,0.8-3.3,1.3c-1.1,0.5-2.1,1-3,1.5l-1.4-2.7c1.9-0.8,3.2-2.1,3.8-3.6
			c0.6-1.6,0.5-3.4-0.2-5.6c-0.6-1.6-1.3-2.7-2.3-3.4c-1-0.7-2-0.9-3.1-0.5c-1.5,0.5-2,3-1.4,7.3c0,0.3,0.1,0.5,0.1,0.7
			c0.5,3.7,0.3,6.5-0.4,8.4c-0.8,1.9-2.3,3.3-4.6,4.1c-3.1,1.1-6,0.7-8.8-1.2c-2.8-1.9-4.9-4.9-6.4-9c-0.6-1.8-1-3.5-1.3-5.2
			c-0.2-1.7-0.3-3.3-0.2-4.9c0.2-0.1,0.4-0.1,0.6-0.2c0.2-0.1,0.5-0.2,0.9-0.3c1.2-0.4,2.4-0.9,3.7-1.5c1.2-0.6,2.4-1.2,3.5-1.9
			l1.6,2.9c-2.4,1.3-3.9,2.8-4.6,4.5c-0.7,1.7-0.7,3.7,0.1,5.9c0.6,1.7,1.4,2.9,2.4,3.7c1,0.8,2,1,3.1,0.6c1.6-0.6,2.3-2.8,1.9-6.7
			c-0.1-0.7-0.1-1.3-0.2-1.7c-0.3-3.7-0.1-6.5,0.7-8.3c0.8-1.8,2.3-3.1,4.5-3.9c2.9-1,5.6-0.6,8.3,1.1c2.7,1.8,4.7,4.6,6,8.4
			c0.6,1.7,1,3.3,1.2,4.9C390.9,146.7,391,148.3,390.8,149.8z"/>
		<path class="st3" d="M397.5,177.6l-2.6,0.3c0-0.1,0-0.3,0-0.4c0-0.2,0-0.3,0-0.4c-0.2-1.3-0.6-2.1-1.2-2.5
			c-0.7-0.4-2.1-0.4-4.2-0.2c-1.5,0.2-3.1,0.4-4.8,0.6c-1.7,0.2-2.7,0.3-2.9,0.4c-3.6,0.4-6.2,1.4-7.6,2.8s-2,3.5-1.7,6.2
			c0.2,1.7,0.7,3.1,1.5,4.2c0.8,1.1,1.8,1.8,3.1,2.2c0.8,0.2,1.9,0.3,3.4,0.2c1.5-0.1,4.3-0.3,8.3-0.8l3.6-0.4
			c1.5-0.2,2.6-0.5,3-1.1s0.7-1.4,0.5-2.7l-0.1-0.7l2.6-0.3c0,1.4,0.1,2.6,0.1,3.6c0.1,1,0.1,1.8,0.2,2.6c0.1,0.8,0.2,1.7,0.4,2.7
			c0.2,1,0.4,2.2,0.7,3.5l-2.6,0.3c0-0.1,0-0.2,0-0.3s0-0.3,0-0.5c-0.2-1.9-2.8-2.6-7.6-2.1c-0.6,0.1-1.1,0.1-1.4,0.2
			c-0.4,0-0.9,0.1-1.6,0.2c-5.5,0.6-9.2,0.7-11.1,0.1c-2.2-0.6-4.1-2-5.6-4.2s-2.5-4.8-2.8-7.8c-0.3-2.4-0.3-4.6,0-6.5
			c0.3-1.9,1-3.5,1.9-4.8c1-1.5,2.3-2.6,3.7-3.3c1.4-0.7,3.5-1.3,6.2-1.6c1-0.1,2.6-0.3,4.7-0.5c2.1-0.2,3.7-0.4,4.8-0.5
			c2.3-0.3,3.7-0.7,4.2-1.1c0.5-0.5,0.7-1.3,0.6-2.5c0-0.1,0-0.2-0.1-0.4c0-0.2-0.1-0.3-0.1-0.4l2.6-0.3c0,1.5,0.1,3,0.2,4.3
			c0.1,1.3,0.2,2.5,0.3,3.6c0.1,0.9,0.3,2,0.5,3.3S397.1,175.6,397.5,177.6z"/>
	</g>
	<g>
		<g>
			<path class="st3" d="M85.8,309.7c1.3,1.3,2.4,2.5,3.4,3.5c1,1,1.9,1.9,2.6,2.5c0.8,0.7,1.7,1.4,2.7,2.3s2.6,2.1,4.7,3.7l-1.8,2
				l-0.4-0.4c-0.9-0.8-1.6-1.2-2.2-1.3c-0.6-0.1-1.1,0.2-1.7,0.8c-0.1,0.1-0.2,0.3-0.4,0.6s-0.3,0.5-0.4,0.8l-6.8,16.7
				c1.5-0.7,3.6-1.8,6.2-3c7.3-3.6,11.2-5.6,11.6-6.1c0.5-0.6,0.7-1.1,0.5-1.7c-0.1-0.6-0.7-1.2-1.6-2l-0.3-0.2l1.8-2
				c1.3,1.4,2.3,2.4,3,3.1s1.3,1.3,1.8,1.8c0.5,0.5,1.2,1,1.9,1.6c0.8,0.6,1.9,1.5,3.5,2.6l-1.8,2c-0.5-0.4-1-0.8-1.4-1
				s-0.8-0.4-1.2-0.5c-0.6-0.1-2.6,0.6-5.8,2.1c-1.7,0.8-3,1.4-4,1.8c-5.3,2.3-9.7,4.3-13.2,5.9c-3.5,1.6-5.3,2.6-5.6,2.8l0,0
				l-5.6-5c0.2-0.2,0.8-1.6,1.8-4.2c1-2.6,3.2-8.4,6.5-17.4c0.2-0.6,0.5-1.3,0.9-2.2c1.4-3.5,1.3-5.9-0.2-7.2l-0.4-0.4L85.8,309.7z"
				/>
			<path class="st3" d="M107.7,356.5l1.5,3c0.4,0.8,0.6,1.5,0.6,2.1c0,0.6-0.2,1.2-0.5,1.7c-0.3,0.5-0.8,0.9-1.4,1.1
				c-0.6,0.2-1.4,0.3-2.3,0.3l-3.1,0l-1.5-3.1c-0.4-0.8-0.6-1.4-0.6-2c0-0.6,0.2-1.1,0.5-1.7c0.4-0.6,0.9-1,1.5-1.3
				c0.6-0.3,1.3-0.4,2.1-0.3L107.7,356.5z"/>
			<path class="st3" d="M131.5,345.8c1.6,0.8,3.1,1.5,4.5,2.1c1.3,0.6,2.4,1.1,3.3,1.4c0.9,0.4,2.1,0.8,3.4,1.2
				c1.3,0.4,3.2,1,5.7,1.8l-1,2.5l-0.5-0.2c-1.1-0.4-2-0.6-2.5-0.4c-0.6,0.1-1,0.6-1.3,1.3c-0.1,0.2-0.1,0.4-0.2,0.7
				s-0.1,0.6-0.1,0.9l-0.5,18c1.2-1.2,2.7-2.9,4.7-5c5.6-5.9,8.5-9.2,8.7-9.8c0.3-0.7,0.2-1.3-0.1-1.8s-1.1-0.9-2.2-1.4l-0.3-0.1
				l1-2.5c1.7,0.8,3,1.5,3.9,1.9c0.9,0.4,1.7,0.8,2.3,1c0.7,0.3,1.5,0.5,2.4,0.8c0.9,0.3,2.3,0.7,4.2,1.2l-1,2.5
				c-0.6-0.2-1.2-0.4-1.7-0.5c-0.5-0.1-0.9-0.1-1.3,0c-0.6,0.1-2.2,1.4-4.7,4c-1.3,1.3-2.3,2.3-3.1,3.1c-4.1,4-7.5,7.5-10.2,10.2
				c-2.7,2.8-4.1,4.3-4.2,4.6l0,0l-7-2.7c0.1-0.3,0.2-1.8,0.2-4.6s0-8.9-0.1-18.5c0-0.6,0-1.4,0-2.4c0.1-3.7-0.8-6-2.7-6.7l-0.6-0.2
				L131.5,345.8z"/>
			<path class="st3" d="M168.6,381.7l2.5,2.3c0.7,0.6,1.1,1.2,1.3,1.8c0.2,0.5,0.2,1.1,0.1,1.8c-0.1,0.6-0.4,1.1-0.9,1.5
				c-0.5,0.4-1.1,0.8-2.1,1.1l-2.9,1.1l-2.6-2.4c-0.6-0.6-1.1-1.1-1.3-1.7c-0.2-0.5-0.3-1.1-0.1-1.7c0.1-0.7,0.5-1.2,0.9-1.7
				c0.5-0.5,1.1-0.8,1.9-1.1L168.6,381.7z"/>
			<path class="st3" d="M205.2,363.3l0,2.7c-0.1,0-0.3,0-0.5,0c-0.2,0-0.3,0-0.4,0c-1.4,0-2.3,0.4-2.8,1c-0.5,0.6-0.7,2.1-0.6,4.4
				c0,1.6,0.1,3.3,0.1,5.1s0.1,2.8,0.1,3c0.1,3.8,0.7,6.6,2.1,8.2c1.3,1.7,3.4,2.5,6.3,2.4c1.8,0,3.3-0.4,4.6-1.1
				c1.2-0.7,2.1-1.7,2.6-3c0.3-0.8,0.5-1.9,0.6-3.5c0.1-1.6,0.1-4.5,0-8.8l-0.1-3.8c0-1.6-0.3-2.7-0.8-3.3c-0.5-0.6-1.4-0.8-2.7-0.8
				l-0.7,0l0-2.7c1.5,0.1,2.7,0.2,3.8,0.3c1,0.1,1.9,0.1,2.7,0.1c0.8,0,1.8-0.1,2.9-0.1c1.1-0.1,2.3-0.2,3.7-0.4l0,2.7
				c-0.1,0-0.2,0-0.4,0c-0.1,0-0.3,0-0.5,0c-2.1,0-3,2.6-3,7.7c0,0.6,0,1.1,0,1.5c0,0.4,0,1,0,1.7c0.1,5.8-0.3,9.6-1.1,11.6
				c-0.9,2.3-2.6,4.1-5,5.4c-2.4,1.3-5.2,2.1-8.5,2.1c-2.5,0-4.8-0.2-6.7-0.7c-1.9-0.5-3.5-1.4-4.8-2.5c-1.4-1.2-2.4-2.6-3.1-4.2
				c-0.6-1.5-1-3.7-1-6.6c0-1.1,0-2.7,0-4.9c0-2.2,0-3.9,0-5.1c0-2.4-0.3-3.9-0.7-4.5c-0.4-0.6-1.3-0.9-2.5-0.9c-0.1,0-0.2,0-0.4,0
				c-0.2,0-0.3,0-0.4,0l0-2.7c1.6,0.1,3.1,0.2,4.5,0.3s2.7,0.1,3.8,0c0.9,0,2.1-0.1,3.5-0.2S203,363.5,205.2,363.3z"/>
			<path class="st3" d="M245.4,381.7l3.2,1.1c0.9,0.3,1.5,0.7,1.9,1.1c0.4,0.4,0.7,0.9,0.8,1.6c0.1,0.6,0.1,1.2-0.2,1.8
				s-0.7,1.2-1.4,1.8l-2.3,2.2l-3.3-1.1c-0.8-0.3-1.4-0.6-1.9-1c-0.4-0.4-0.7-0.9-0.8-1.5c-0.1-0.7-0.1-1.3,0.2-1.9
				c0.2-0.6,0.7-1.2,1.3-1.7L245.4,381.7z"/>
			<path class="st3" d="M254.6,357.3c1.7-0.6,3.3-1.2,4.6-1.7c1.4-0.5,2.5-1,3.3-1.4c0.9-0.4,2-0.9,3.2-1.5s3-1.5,5.3-2.7l1.1,2.5
				l-0.5,0.2c-1.1,0.5-1.8,1-2.1,1.5s-0.3,1.1,0,1.8c0.1,0.2,0.2,0.4,0.4,0.6c0.2,0.2,0.4,0.5,0.6,0.7l12.4,13.1
				c-0.1-1.7-0.1-4-0.2-6.9c-0.3-8.1-0.5-12.5-0.8-13.1c-0.3-0.7-0.7-1.1-1.3-1.2c-0.6-0.1-1.4,0.1-2.5,0.6l-0.3,0.1l-1.1-2.5
				c1.8-0.6,3.1-1.1,4.1-1.4c0.9-0.3,1.7-0.7,2.3-0.9c0.7-0.3,1.4-0.7,2.3-1.1s2.1-1.1,3.8-2.1l1.1,2.5c-0.6,0.3-1.1,0.5-1.5,0.8
				c-0.4,0.3-0.7,0.6-0.9,0.9c-0.4,0.5-0.5,2.6-0.5,6.1c0,1.8,0,3.3,0,4.4c-0.1,5.8-0.1,10.6,0,14.5s0.2,5.9,0.3,6.3l0,0l-6.8,3
				c-0.1-0.3-1.1-1.4-3.1-3.4s-6.3-6.3-13.1-13.1c-0.4-0.4-1-1-1.7-1.7c-2.6-2.7-4.8-3.6-6.7-2.8l-0.5,0.2L254.6,357.3z"/>
			<path class="st3" d="M306.3,356.5l3.3-0.1c0.9,0,1.7,0.1,2.2,0.3s1,0.6,1.4,1.2c0.3,0.5,0.5,1.1,0.5,1.7s-0.3,1.4-0.7,2.2
				l-1.3,2.8l-3.5,0.1c-0.9,0-1.6,0-2.1-0.3c-0.5-0.2-1-0.6-1.3-1.1c-0.4-0.6-0.6-1.2-0.5-1.9c0-0.7,0.2-1.4,0.6-2.1L306.3,356.5z"
				/>
			<path class="st3" d="M306.2,330.4c1.4-1.2,2.6-2.2,3.7-3.2c1.1-1,2-1.8,2.6-2.4c0.7-0.7,1.5-1.6,2.5-2.6c0.9-1,2.3-2.5,4-4.4
				l1.9,1.9l-0.4,0.4c-0.8,0.8-1.3,1.5-1.4,2.1s0.1,1.2,0.6,1.7c0.1,0.1,0.3,0.3,0.5,0.4s0.5,0.3,0.8,0.4l16.2,7.9
				c-0.7-1.6-1.5-3.7-2.6-6.3c-3.1-7.5-4.9-11.5-5.3-12c-0.5-0.5-1.1-0.8-1.6-0.7c-0.6,0.1-1.3,0.6-2.1,1.4l-0.2,0.2l-1.9-1.9
				c1.5-1.2,2.6-2.1,3.3-2.8s1.4-1.2,1.9-1.7c0.5-0.5,1.1-1.1,1.7-1.8c0.6-0.7,1.6-1.8,2.9-3.3l1.9,1.9c-0.5,0.5-0.8,0.9-1.1,1.3
				c-0.3,0.4-0.5,0.8-0.6,1.2c-0.2,0.6,0.4,2.6,1.7,5.9c0.7,1.7,1.2,3.1,1.5,4.1c2,5.4,3.7,9.9,5.1,13.5c1.4,3.6,2.2,5.5,2.5,5.8
				l0,0l-5.3,5.2c-0.2-0.2-1.6-0.9-4.1-2s-8.1-3.7-16.9-7.6c-0.5-0.2-1.3-0.6-2.2-1c-3.4-1.6-5.8-1.7-7.2-0.3l-0.4,0.4L306.2,330.4z
				"/>
			<path class="st3" d="M354.3,311.4l3.1-1.3c0.9-0.3,1.6-0.5,2.2-0.5s1.1,0.2,1.7,0.7c0.5,0.4,0.8,0.8,1,1.4
				c0.2,0.6,0.2,1.4,0.2,2.3l-0.2,3.1l-3.2,1.3c-0.8,0.3-1.5,0.5-2,0.5c-0.6,0-1.1-0.2-1.6-0.6c-0.6-0.4-0.9-0.9-1.2-1.5
				s-0.3-1.3-0.2-2.2L354.3,311.4z"/>
		</g>
	</g>
	<g>
		<path class="st4" d="M8.5,287.1c-1.7,0-3.4-0.1-4.9-0.5c-3-0.8-4.2-3.5-1.7-6c3.3-3.3,6.3-6.8,9.4-10.3c3.9-4.3,7.5-8.8,11.5-13.1
			c7.2-7.8,14.6-15.4,21.9-23.1c13-13.8,26-27.6,38.9-41.5c12.1-13,24.2-26.1,36.3-39.2c15.1-16.4,30.2-32.8,45.3-49.2
			c9-9.8,18.1-19.5,27.2-29.2c0.8-0.9,1.6-1.7,2.5-2.5c1.3-1.1,2.1-2.9,4.6-1.9c2.5,1,2.9,2.8,2.9,5.1c0,16.2-0.1,32.3-0.1,48.5
			c0,4.7,0,9.3,0,14c0,1.2,0.1,2.4-0.1,3.5c-0.6,3.7-3.7,5-6.5,2.5c-2.2-2-4.1-4.3-6.2-6.5c-3.4-3.4-4.4-3.3-7.6,0.2
			c-19,21-37.9,42-56.9,62.9c-15.1,16.6-30.2,33.3-45.3,49.9c-0.4,0.5-1.1,0.9-1.3,1.5c-0.4,1.2-1.2,2.7-0.8,3.6
			c0.4,0.9,2.1,1.6,3.2,1.7c6,0.2,12,0.1,18,0.1c22.6,0,45.3,0,67.9,0c0.8,0,1.7,0,2.5-0.1c2,0,4.4,0.4,4.9-2.2
			c0.5-2.6,0.8-5.2-1.8-7.3c-5.5-4.4-10.8-8.9-16.1-13.4c-1.4-1.2-2.9-2.3-4.2-3.5c-1.4-1.3-3.5-2.4-2.6-4.9c0.9-2.3,2.9-2.3,5-2.3
			c4.2,0.1,8.3,0,12.5,0c9.8,0,19.6,0,29.4,0.1c4.9,0.1,5.9,1.1,5.9,5.9c0.1,17.1,0.1,34.3,0.1,51.5c0,0.5,0,1,0,1.5
			c-0.4,4-0.9,4.4-5,4.4C181.5,287.1,22,287.2,8.5,287.1z"/>
		<path class="st4" d="M196.2,207.5c-8.4-1.8-13-9.5-10.4-17.3c1.5-4.6,3.3-9,5.2-14.2c1,2.3,1.9,4.2,2.8,6.4
			c4.7-5.5,7.4-11.8,8-19.6c7.5,3.2,10.3,9.5,13.7,15.9c0.4-2.1,0.8-4.3,1.3-7c6.3,5.1,9.4,11.5,9.4,18.8c0,8.3-5.4,13.6-12.7,17.6
			c0.1-4.6,2.3-8.7,1-13.2c-1.3-4.2-2.9-8-6.4-11c-1.6,3.7-3.1,7.2-4.9,11.5c-1-2.5-1.6-3.9-2.2-5.6c-1.9,2.8-3.8,5.3-5.3,8.1
			c-0.7,1.3-0.6,3.2-0.4,4.8C195.1,204.1,195.7,205.5,196.2,207.5z"/>
		<path class="st4" d="M412.2,280.5c-3.3-3.3-6.3-6.8-9.4-10.3c-3.9-4.3-7.5-8.8-11.5-13.1c-7.2-7.8-14.6-15.4-21.9-23.1
			c-7.8-8.3-15.7-16.7-23.5-25.1c6.7,0,12.3,0,17.8,0c2.9,0,4-1.1,3.5-3.8c-0.3-1.2-0.9-2.6-1.7-3.5c-5-5.7-10.2-11.4-15.3-17.1
			c-1.3-1.5-2.8-2.1-4.8-2.1c-2.3,0-24.2,0-24.2,0s-18-19.4-27-29.2c-15.1-16.4-30.2-32.8-45.3-49.2c-9-9.8-18.1-19.5-27.2-29.2
			c-0.8-0.9-1.6-1.7-2.5-2.5c-1.3-1.1-2.1-2.9-4.6-1.9c-2.5,1-2.9,2.8-2.9,5.1c0,16.2,0.1,32.3,0.1,48.5c0,4.7,0,9.3,0,14
			c0,1.2-0.1,2.4,0.1,3.5c0.6,3.7,3.7,5,6.5,2.5c2.2-2,4.1-4.3,6.2-6.5c3.4-3.4,4.4-3.3,7.6,0.2c13.5,14.9,26.9,29.8,40.4,44.7
			c-0.2,0-0.4,0-0.4,0c-4.4,0-7.6,0-11,0c-2.8-0.1-5,0.6-7.1,2.7c-6,5.8-12.3,11.2-18.5,16.8c-0.6,0.6-1.3,1.1-1.8,1.8
			c-1.7,2.2-1.1,4,1.7,4.6c2.1,0.4,4.3,0.7,6.4,0.7c17,0,34,0.1,50.9,0h3.7c12.6,13.9,25.2,27.8,37.8,41.7c0.4,0.5,1.1,0.9,1.3,1.5
			c0.4,1.2,1.2,2.7,0.8,3.6c-0.4,0.9-2.1,1.6-3.2,1.7c-6,0.2-12,0.1-18,0.1c-22.6,0-45.3,0-67.9,0c-0.8,0-1.7,0-2.5-0.1
			c-2,0-4.4,0.4-4.9-2.2c-0.5-2.6-0.8-5.2,1.8-7.3c5.5-4.4,10.8-8.9,16.1-13.4c1.4-1.2,2.9-2.3,4.2-3.5c1.4-1.3,3.5-2.4,2.6-4.9
			c-0.9-2.3-2.9-2.3-5-2.3c-4.2,0.1-8.3,0-12.5,0c-9.8,0-19.6,0-29.4,0.1c-4.9,0.1-5.9,1.1-5.9,5.9c-0.1,17.1-0.1,34.3-0.1,51.5
			c0,0.5,0,1,0,1.5c0.4,4,0.9,4.4,5,4.4c15.8,0,175.3,0.2,188.8,0c1.7,0,3.4-0.1,4.9-0.5C413.5,285.7,414.8,283.1,412.2,280.5z"/>
	</g>
</g>
</svg>
